<?xml version="1.0" standalone="no"?>
<!DOCTYPE svg PUBLIC "-//W3C//DTD SVG 1.1//EN" "http://www.w3.org/Graphics/SVG/1.1/DTD/svg11.dtd" >
<svg xmlns="http://www.w3.org/2000/svg">
<metadata>Generated by IcoMoon</metadata>
<defs>
<font id="icomoon" horiz-adv-x="1024">
<font-face units-per-em="1024" ascent="960" descent="-64" />
<missing-glyph horiz-adv-x="1024" />
<glyph unicode="&#x20;" horiz-adv-x="512" d="" />
<glyph unicode="&#xe900;" glyph-name="uniE900" d="M696 597q-1 0-1.5-0.5l-0.5-0.5v-296l75-75q16 8 33 8 31 0 52.5-21.5t21.5-52-21.5-52-52-21.5-52 21.5-21.5 51.5q0 20 9 36l-76 76h-303l-70-70q13-19 13-42 0-30-22-51.5t-52.5-21.5-52 21.5-21.5 52 21.5 52 52.5 21.5q14 0 28-5l78 78v294l-2 1-70 71q-16-8-34-8-31 0-52.5 21.5t-21.5 52 21.5 52 52 21.5 52.5-21.5 22-52.5q0-19-10-36l70-69h308l69 68q-11 18-11 37 0 31 22 52.5t52.5 21.5 52-21.5 21.5-52-21.5-52-52.5-21.5q-17 0-32 7zM376 589v-275h275v275h-275zM222 516q-91 0-156 64.5t-65 156 65 156 156 64.5 155.5-64.5 64.5-155.5q0-9-6-15.5t-15-6.5-15 6.5-6 15.5q0 73-52.5 125t-126 52-125.5-52-52-125.5 52-125.5 126-52h14q9 1 15.5-5t7.5-14.5-5-15.5-14.5-7.5-17.5-0.5zM421 181q9 0 15-6.5t6-14.5q0-92-64.5-156.5t-155.5-64.5-156 64.5-65 156 65 156 156 64.5q9 0 17.5-0.5t14.5-7.5 5-15.5-7.5-14.5-15.5-5h-14q-74 0-126-52t-52-125.5 52-125.5 125.5-52 126 52 52.5 125q0 9 6 15.5t15 6.5zM603 715q-9 0-15 6.5t-6 14.5q0 92 64.5 156.5t155.5 64.5 156-64.5 65-156-65-156-156-64.5q-9 0-17.5 0.5t-14.5 7.5-5 15.5 7.5 14.5 15.5 5h14q74 0 126 52t52 125.5-52 125.5-125.5 52-126-52-52.5-126q0-8-6-14.5t-15-6.5zM802 380q91 0 156-64.5t65-156-65-156-156-64.5-155.5 64.5-64.5 155.5q0 9 6 15.5t15 6.5 15-6.5 6-15.5q0-73 52.5-125t126-52 125.5 52 52 125.5-52 125.5-126 52h-14q-9-1-15.5 5t-7.5 14.5 5 15.5 14.5 7.5 17.5 0.5z" />
<glyph unicode="&#xe901;" glyph-name="uniE901" horiz-adv-x="1152" d="M832 576q0 66-33 124-32 59-88.5 102t-132.5 69q-76 25-162 25t-162-25q-76-26-132.5-69t-88.5-102q-33-58-33-124 0-52 20-98.5t56-85.5q-20-46-45.5-77.5t-26.5-31.5q-3-4-4-8.5t1-9.5q2-4 6-6.5t9-2.5q55 0 100 15.5t77 34.5q49-24 105-37t118-13q86 0 162 25t132.5 68.5 88.5 101.5q33 58 33 125zM1076 136q36 39 56 85.5t20 98.5q0 50-19 96t-53.5 84.5-81.5 67.5q-48 30-105 48 2-10 2.5-20t0.5-20q0-80-38-150t-103-122-152-82q-88-30-187-30-16 0-32 1t-31 2q23-43 62-79 38-36 88-61.5t109-40.5q59-14 124-14 62 0 118 13t105 37q32-19 77-34.5t100-15.5q5 0 9 2.5t6 6.5q2 5 1 9.5t-4 8.5q-1 0-26.5 31.5t-45.5 77.5v0z" />
<glyph unicode="&#xe902;" glyph-name="uniE902" d="M750 888.5q-80 0-143-38t-95-66q-32 28-95 66t-143 38q-56 0-106-22-50-21-87.5-58.5t-58.5-87.5q-22-50-22-106 0-71 43.5-126.5t46.5-58.5l422-422 422 422q3 3 46.5 58.5t43.5 126.5q0 56-22 106-21 50-58.5 87.5t-87.5 58.5q-50 22-106 22v0z" />
<glyph unicode="&#xe903;" glyph-name="uniE903" d="M301 960q-62 0-117-24-54-24-95-65t-65-96q-24-54-24-116v-422q0-62 24-117t64.5-96 95.5-65q55-23 117-23h422q62 0 117 23 54 24 95 65t65 96 24 117v422q0 62-24 116-24 55-64.5 96t-95.5 65-117 24h-422zM301 867h422q43 0 81-17 38-16 66-44t45-66q16-38 16-81v-422q0-43-16-81-17-38-45-66.5t-66-44.5-81-16h-422q-43 0-81 16t-66 44.5-45 66.5q-16 38-16 81v422q0 43 16 81 17 38 45 66t66 44q38 17 81 17zM787 765q-18 0-30-12.5t-12-29.5q0-18 12-30.5t30-12.5 30 12.5 12 30.5q0 17-12 29.5t-30 12.5zM512 727q-58 0-108-22-51-22-89-60t-60-89-22-108q0-58 22-109t60-89 89-60q50-22 108-22t108 22q51 22 89 60t60 89 22 109q0 57-22 108t-60 89-89 60q-50 22-108 22zM512 634q78 0 132-54.5t54-131.5q0-78-54-132.5t-132-54.5-132 54.5-54 132.5q0 77 54 131.5t132 54.5z" />
<glyph unicode="&#xe904;" glyph-name="uniE904" d="M512 842q-56 0-107-3-52-3-98-7t-85-8q-39-5-69-10-50-7-86.5-41.5t-45.5-83.5q-8-42-14.5-103t-6.5-138q0-78 6.5-138.5t14.5-103.5q9-49 45.5-83.5t86.5-41.5q30-4 69-9t85-9 98-7q52-2 107-2t107 2q52 3 98 7t85 9 69 9q50 7 86.5 41.5t45.5 83.5q8 43 14.5 104t6.5 138-6.5 138-14.5 103q-9 49-45.5 83.5t-86.5 41.5q-30 5-69 10-39 4-85 8t-98 7q-51 3-107 3zM512 763q54 0 104-3 50-2 94.5-6t82.5-8q38-5 67-9 25-4 43-21t23-42q7-39 13-96t6-130-6-130.5-13-96.5q-5-24-23-41.5t-43-21.5q-29-4-67-8-38-5-82.5-8.5t-95.5-6.5q-50-2-103-2t-103 2q-51 3-95.5 6.5t-82.5 8.5q-38 4-67 8-25 4-43 21.5t-23 41.5q-7 39-13 96.5t-6 130.5 6 130 13 96q5 25 23 42t43 21q29 4 67 9 37 4 82 8t95 6q50 3 104 3zM394 673v-451l59 34 276 157 59 35-59 34-276 158zM473 538l156-90-156-90v180z" />
<glyph unicode="&#xe905;" glyph-name="uniE905" d="M512 960q-106 0-199-41-94-40-163.5-109.5t-109.5-162.5-40-199q0-82 24-156t67-136 103-110q60-47 131-75-3 30-4.5 72t6.5 75q4 15 13 56 10 42 20.5 86t18.5 78l8 34-7.5 21t-7.5 55q0 54 27 89.5t65 35.5q33 0 49-21.5t16-51.5q0-33-15.5-78.5t-26.5-91.5q-9-38 14.5-65.5t61.5-27.5q34 0 63 18 30 17 51.5 48t33.5 74q13 43 13 95 0 46-16 84t-44 66-68 43q-39 15-86 15-55 0-98-19-43-18-72.5-49.5t-45.5-71.5q-15-40-15-82 0-33 11-65.5t27-51.5q3-4 3.5-7.5t-0.5-7.5l-8-32t-6-26q-2-7-6-8.5t-11 2.5q-48 22-76 82t-28 116q0 61 22 117t64.5 98.5 105.5 68.5 146 26q67 0 125-23 57-22 99.5-61.5t67.5-93.5q24-55 24-118 0-66-20-124t-55-101-84-68-107-25q-39 0-72 17t-45 41l-13.5-51.5t-18.5-69.5q-9-34-28.5-71.5t-35.5-63.5q36-11 74-16.5t78-5.5q106 0 199 40 94 40 163.5 109.5t109.5 162.5q40 94 40 200t-40 199-109.5 162.5-163.5 109.5q-93 41-199 41v0z" />
<glyph unicode="&#xe906;" glyph-name="uniE906" d="M536 960q-78 0-152-25-74-26-132-73t-94-114q-35-67-35-151 0-107 46-165.5t83-58.5q15 0 23 30t8 42q0 14-24 46t-24 91q0 61 22 112 22 52 60.5 88.5t90.5 57.5 112 21q52 0 96-15 44-14 76-42.5t50-69.5q18-42 18-96 0-40-9-94-9-53-30-101t-56-81q-36-33-88-33-38 0-66 24.5t-28 63.5q0 58 24.5 114.5t24.5 115.5q0 51-29 71-29 21-63.5 14t-63.5-42q-29-34-29-95 0-26 4-53t15-50q-10-45-24-101-14-57-26-115.5t-21-116.5q-8-57-8-103 0-29 3-57.5t6-56.5q5-6 5.5-6t8.5 3q76 104 90 164.5t49 197.5q18-35 60-54t80-19q81 0 140 36t97 93 57 128q18 71 18 142 0 76-30 137t-80.5 104.5-116.5 67.5-138 24v0z" />
<glyph unicode="&#xe907;" glyph-name="uniE907" d="M626 473q0 63 68.5 98t68.5 158q0 90-42.5 134t-48.5 48h83l82 49h-267q-103 0-165-31t-96-72.5-45-84.5q-11-42-11-66 0-35 14-73 14-37 41.5-68t69.5-51q42-19 97-19 10 0 21 0.5t22 1.5q-2-5-7.5-20.5t-5.5-32.5q0-34 15.5-56t23.5-35q-61 0-124-13-64-13-115.5-40.5t-84.5-70.5-33-102q0-21 11-54 11-32 42-62.5t86-52.5q54-22 141-22 99 0 165 27 66 26 105.5 65t56.5 83q16 44 16 78 0 66-29 107-28 41-62.5 70.5t-63.5 52.5q-29 24-29 54v0zM537 531q-35 0-65 20-31 20-54.5 53.5t-36.5 76.5q-14 44-14 90 0 28 21.5 86t98.5 58q49 0 81-31 31-31 49.5-72.5t25.5-83.5q7-41 7-61 0-9-11-72.5t-102-63.5v0zM531-8q-32 0-72 8-40 7-75 26t-60 50q-24 32-24 80 0 33 41 96.5t210 63.5q8 0 15.5-0.5t14.5-0.5q35-26 89-67t54-111q0-31-33.5-88t-159.5-57v0z" />
<glyph unicode="&#xe908;" glyph-name="uniE908" d="M1024 765.5q-28-12-58.5-20.5t-62.5-12.5q33 20 57 50t36 66q-31-18-64.5-31t-69.5-20q-28 31-68 49t-85 18q-43 0-82-17-38-16-66.5-44.5t-45.5-67.5q-16-38-16-81 0-13 1.5-25t3.5-23q-65 3-126 20-62 17-117 45.5t-103 67.5-87 86q-13-23-20.5-49.5t-7.5-55.5q0-55 25.5-101t67.5-74q-26 1-50 7.5t-45 18.5v-3q0-76 48.5-133.5t120.5-72.5q-14-3-27.5-5t-28.5-2q-10 0-20 1t-19 3q20-63 73.5-104t122.5-42q-54-42-120.5-66t-140.5-24q-13 0-25.5 0.5t-24.5 2.5q35-22 73-40t78.5-30 83.5-18q42-7 87-7 145 0 256 55 112 54 188 140t115 193q39 106 39 210 0 7-0.5 14t-0.5 13q31 23 57.5 50.5t47.5 58.5v0z" />
<glyph unicode="&#xe909;" glyph-name="uniE909" d="M649 960q-54 0-96-15-43-15-72.5-45.5t-44.5-77.5-15-112v-153h-183v-182h183v-439h182v439h147l36 182h-183v122q0 49 18.5 73.5t64.5 24.5h100v175q-13 2-49 5t-88 3v0z" />
<glyph unicode="&#xe90a;" glyph-name="uniE90A" d="M795 757.5l4 12q4 10 6 19.5t2 19.5q0 25-9 46t-26 38q-18 18-39.5 26.5t-46.5 8.5q-41 0-79.5-24.5t-75.5-73.5v-1q-5-6-6-9t-6-10l-7-11-7 11q-5 7-7.5 12t-5.5 8l-5 7q-36 49-72 70t-77 21q-25 0-46.5-8.5t-39.5-26.5q-17-17-26-38t-9-46q0-10 2-19.5t6-19.5l4-12h-229v-237h43v-552h938v552h43v237h-229zM588 788.5q26 36 50.5 53.5t47.5 17.5q25 0 38.5-13t13.5-38q0-24-13.5-37.5t-38.5-13.5h-122zM338 859.5q23 0 47-17t50-52l7-10q3-4 5.5-6.5t1.5-2.5l11-14h-122q-25 0-38.5 13.5t-13.5 37.5q0 25 13.5 38t38.5 13v0zM911 36.5h-364v424h-70v-424h-364v484h798v-484zM955 588.5h-408v42h-70v-42h-408v101h886v-101z" />
<glyph unicode="&#xe90b;" glyph-name="uniE90B" d="M812 225.5q-9 0-15.5-2.5t-11.5-7.5-7.5-12-2.5-15 2.5-14.5 7.5-12.5q5-5 11.5-7.5t15.5-2.5q8 0 14.5 2.5t11.5 7.5q5 6 8 12.5t3 14.5-3 15-8 12-11.5 7.5-14.5 2.5zM685 624.5q8 0 14.5 2.5t11.5 8.5q6 5 8.5 11.5t2.5 14.5-2.5 15-8.5 12q-5 5-11.5 7.5t-14.5 2.5q-9 0-15.5-2.5t-11.5-7.5-7.5-12-2.5-15 2.5-14.5 7.5-11.5q5-6 11.5-8.5t15.5-2.5zM884 388.5q-5 5-11.5 7.5t-15.5 2.5q-8 0-14.5-2.5t-11.5-7.5-8-12-3-15 3-14.5 8-12.5q5-5 11.5-7.5t14.5-2.5q9 0 15.5 2.5t11.5 7.5q5 6 8 12.5t3 14.5-3 15-8 12zM339 698.5q-8 0-14.5-2.5t-11.5-7.5q-6-5-8.5-12t-2.5-15 2.5-14.5 8.5-11.5q5-6 11.5-8.5t14.5-2.5q9 0 15.5 2.5t11.5 8.5q5 5 7.5 11.5t2.5 14.5-2.5 15-7.5 12-11.5 7.5-15.5 2.5v0zM512 670.5q8 0 14.5 2.5t12.5 7.5q5 6 7.5 12.5t2.5 14.5-2.5 15-7.5 12q-6 5-12.5 7.5t-14.5 2.5-14.5-2.5-12.5-7.5q-5-5-7.5-12t-2.5-15 2.5-14.5 7.5-12.5q6-5 12.5-7.5t14.5-2.5v0zM796 569.5l-241-139-3 1q-10 5-20 8t-20 3q-16 0-30-6t-26-18-18-26-6-31q0-16 6-30t18-26 26-18 30-6 30 5.5 27 16.5q11 12 17 26t6 32v4l241 139-37 65zM873 723.5q-37 38-79 66-41 28-86.5 47t-94.5 29q-49 9-101 9t-101-9q-49-10-94.5-29t-86.5-47q-42-28-79-66-38-37-66-79t-47-87-29-94q-9-49-9-102 0-46 7-89 8-44 22.5-84.5t36.5-78.5 51-74l10-14h770l9 14q30 35 52 73 22 39 36.5 79.5t22.5 84.5q7 43 7 89 0 53-9 102-10 49-29 94t-47 87-66 79v0zM860 98.5l-2-3h-692l-2 3q-45 60-67.5 126t-22.5 137q0 45 8 87t24 81 41 74q24 36 56 68t67 56q36 24 74.5 40.5t80.5 24.5 87 8 87-8 80.5-24.5 74.5-40.5q35-24 67-56t56-68q25-35 41-74t24-81 8-87q0-71-22.5-137t-67.5-126zM212 571.5q-8 0-14.5-2.5t-11.5-7.5-8-12-3-15 3-14.5 8-12.5q5-5 11.5-7.5t14.5-2.5q9 0 15.5 2.5t11.5 7.5q5 6 7.5 12.5t2.5 14.5-2.5 15-7.5 12-11.5 7.5-15.5 2.5zM212 225.5q-8 0-14.5-2.5t-11.5-7.5-8-12-3-15 3-14.5 8-12.5q5-5 11.5-7.5t14.5-2.5q9 0 15.5 2.5t11.5 7.5q5 6 7.5 12.5t2.5 14.5-2.5 15-7.5 12-11.5 7.5-15.5 2.5zM204 361.5q0 8-3 15t-8 12-11.5 7.5-14.5 2.5q-9 0-15.5-2.5t-11.5-7.5-7.5-12-2.5-15 2.5-14.5 7.5-12.5q5-5 11.5-7.5t15.5-2.5q8 0 14.5 2.5t11.5 7.5q5 6 8 12.5t3 14.5z" />
<glyph unicode="&#xe90c;" glyph-name="uniE90C" d="M341 930.5v-94q-57-24-103.5-62.5t-81.5-91.5-53-111.5-18-122.5q0-44 8-85t23.5-78.5 39.5-71.5q23-35 55-66 31-32 65-55 35-23 72.5-39t78.5-24q41-7 85-7t85 7q41 8 78.5 24t71.5 39q35 23 66 55 32 31 55 66 24 34 39.5 71.5t23.5 78.5 8 85q0 64-18 122.5t-53 111.5-81.5 91.5-103.5 62.5v94q76-27 137.5-73.5t108.5-111.5q48-66 71.5-140.5t23.5-156.5q0-53-9-102-10-49-28.5-94t-47.5-86q-28-42-66-79-37-38-79-66-41-28-86.5-47t-93.5-28q-49-10-102-10t-102 10q-49 9-94 28t-86 47q-42 28-79 66-38 37-66 79-29 41-47.5 86t-28.5 94q-9 49-9 102 0 82 23.5 156.5t71.5 140.5q47 65 108.5 111.5t137.5 73.5v0zM469 959.5h86v-511h-86v511z" />
<glyph unicode="&#xe90d;" glyph-name="uniE90D" d="M974 164.25l4 1q20 5 32.5 20t12.5 33v167q0 20-12.5 35.5t-32.5 21.5l-4 1v138q0 34-22 59t-56 30h-2l-1 3-157 254q-7 12-18 20t-24 11q-14 3-28.5 0t-27.5-11l-438-276h-108q-37 0-64-26.5t-27-63.5v-555q0-37 27-63.5t64-26.5h791q38 0 64.5 26.5t26.5 63.5v138zM816 671.25h-132l95 61 37-61zM729 813.25l16-25-183-117h-57l224 142zM679 894.25l16-25-313-198h-58l355 223zM908 26.25q0-10-7.5-17.5t-17.5-7.5h-791q-10 0-17.5 7.5t-7.5 17.5v555q0 10 7.5 17.5t17.5 7.5h791q10 0 17.5-7.5t7.5-17.5v-137h-155q-47 0-80-36t-33-74v-61q0-46 33-78t79-32h156v-137zM752 228.25q-19 0-32.5 13.5t-13.5 31.5v61q0 11 14 28t33 17h204v-151h-205z" />
<glyph unicode="&#xe90e;" glyph-name="uniE90E" d="M176 478.5v-61h672v61h-672z" />
<glyph unicode="&#xe90f;" glyph-name="uniE90F" d="M481 784v-306h-305v-61h305v-305h62v305h305v61h-305v306h-62z" />
<glyph unicode="&#xe910;" glyph-name="uniE910" d="M133 683.5l-46-46 425-425 425 425-46 46-379-379z" />
<glyph unicode="&#xe911;" glyph-name="uniE911" d="M512 683.5l-23-22-402-402 46-47 379 379 379-379 46 47-402 402z" />
<glyph unicode="&#xe912;" glyph-name="uniE912" d="M676 824l-353-353-22-23 22-23 353-353 47 46-330 330 330 330z" />
<glyph unicode="&#xe913;" glyph-name="uniE913" d="M348 824l-47-46 330-330-330-330 47-46 353 353 22 23-22 23z" />
<glyph unicode="&#xe914;" glyph-name="uniE914" d="M814 492h-608q-12 0-21-10.5t-9-22.5 9-22.5 21-10.5h608q12 0 21 10.5t9 22.5-9 22.5-21 10.5zM976 648q-23 20-52 30.5t-61 10.5h-16q-9 29-32 48.5t-54 23.5q-14 37-38 67-25 31-58.5 53t-73.5 35q-40 12-83 12-44 0-84-13-41-12-74.5-34.5t-57.5-54.5q-25-31-38-69-25-7-43.5-28t-26.5-40h-27q-67 0-112-41.5t-45-101.5v-432q0-60 45-103t112-43h706q67 0 114 43t47 103v432q0 30-12.5 56t-35.5 46v0zM747 720q18 0 32-10.5t22-20.5h-108q8 10 22 20.5t32 10.5v0zM508 870q65 0 117.5-33t74.5-86q-19-9-33-26t-20-36h-264q-7 19-24 39t-41 28q23 51 75 82.5t115 31.5zM284 720q17 0 31.5-10.5t22.5-20.5h-108q7 10 21.5 20.5t32.5 10.5v0zM969 113q0-36-37-58t-78-22h-699q-41 0-70.5 22t-29.5 58v427q0 36 29.5 59.5t70.5 23.5h699q20 0 42.5-6t36.5-18q13-12 24.5-27t11.5-32v-427zM831 413h-641q-5 0-8-4.5t-3-8.5 3-8.5 8-4.5h641q4 0 7 4.5t3 8.5-3 8.5-7 4.5z" />
<glyph unicode="&#xe915;" glyph-name="uniE915" d="M1024 844v-594q0-47-34.5-81.5t-81.5-34.5h-214v-189q0-4-2.5-6.5t-5.5-2.5q-4 0-6 1l-262 197h-302q-47 0-81.5 34.5t-34.5 81.5v594q0 47 34.5 81.5t81.5 34.5h792q47 0 81.5-34.5t34.5-81.5zM956 250v594q0 20-13.5 34t-34.5 14h-792q-20 0-34-14t-14-34v-594q0-21 14-34.5t34-13.5h325l185-139v139h282q20 0 34 13.5t14 34.5z" />
<glyph unicode="&#xe916;" glyph-name="uniE916" d="M761 801l22-19h2l8-7 54 58-13 10h-2v3l-27 19h-3l-19 15-45-66 20-12h3v-1zM916 607l9-27v-2l10-32 74 22-7 32-3 5-9 32v2h-3l-2 5-69-34v-3zM852 718v-2l17-23 2-5 10-17 69 42-15 22v3l-22 27-12 12-59-49 10-10zM945 487v-39q0-45-8-87-8-41-23.5-79.5t-39.5-73.5-56-66q-31-32-66-56-35-23-73.5-39t-79.5-24q-42-8-87-8t-87 8q-41 8-79.5 24t-73.5 39q-35 24-66 56-32 31-56 66t-39.5 73.5-23.5 79.5q-8 42-8 87 0 56 13 108t40 99q26 48 62 87t82 69v-206h78v314h-315v-78h143q-45-38-80-82-34-44-56.5-93t-34.5-103q-11-55-11-115 0-53 9-102 10-49 28.5-94t46.5-87q29-41 66-78 38-38 79-66t86.5-47 94.5-28 102-9 102 9 94.5 28 86.5 47 79 66q37 37 66 78 28 42 46.5 87t28.5 94q9 49 9 102v39h-79zM647 856l27-10h5l32 71-2 2h-5l-32 13h-2v2l-35 8-20-77 30-7 2-2zM551 959h-39v-79h39v79z" />
<glyph unicode="&#xe917;" glyph-name="uniE917" d="M765-7.028h-1q-15 0-28.5 3.5t-25.5 9.5l-198 108-199-108q-11-6-25-9.5t-28-3.5h-5q-15 1-29 5.5t-27 12.5q-12 9-21.5 20.5t-15.5 24.5q-5 13-6.5 27.5t1.5 28.5l51 206-171 139q-12 10-20.5 22t-12.5 27q-4 13-3.5 28t5.5 30q5 13 13.5 25t20.5 20q12 9 26 14.5t30 6.5l229 20 91 194q6 13 16 24t23 19q29 17 59.5 16t54.5-16q14-8 24-19.5t16-24.5l90-193 230-20q15-1 29-6.5t26-13.5q12-10 21-21.5t14-25.5q4-14 4.5-28.5t-3.5-28.5q-4-15-12.5-27.5t-19.5-21.5l-172-139 50-205q3-14 2-29t-7-29q-5-13-14.5-24.5t-23.5-20.5q-12-8-26.5-12.5t-29.5-4.5h-2zM512 189.972l231-126q5-2 9.5-3.5t9.5-1.5h3q5 0 10.5 2t9.5 5q5 3 8 6.5t5 7.5q2 5 2.5 9.5t-1.5 8.5l-59 245 204 165q4 3 6.5 7t4.5 9q1 4 1 8.5t-2 8.5q-2 5-5 9t-7 7-9 4.5-11 2.5l-268 23-107 229q-2 4-5.5 8t-8.5 7q-8 5-20 5t-21-5q-5-3-8.5-6.5t-5.5-8.5l-108-229-268-23q-6 0-11-2t-10-5q-3-3-6-7t-5-9q-2-4-2-8.5t1-8.5q2-4 4.5-8t6.5-8l204-165-60-245q-1-4-0.5-8.5t1.5-8.5q2-4 5.5-8t7.5-7q5-3 10-4.5t11-2.5q6 0 11.5 1.5t9.5 3.5l232 126z" />
<glyph unicode="&#xe918;" glyph-name="uniE918" d="M761 801l22-19h2l8-8 54 59-13 10h-2v3l-27 19h-3l-19 15-45-66 20-13h3zM916 607l9-27v-2l10-32 74 22-7 32-3 5-9 32v2h-3l-2 5-69-34v-3zM852 718v-3l17-22 2-5 10-17 69 42-15 22v3l-22 27-12 12-59-49zM945 487v-39q0-45-8-87-8-41-23.5-79.5t-39.5-73.5-56-66q-31-32-66-56-35-23-73.5-39t-79.5-24q-42-8-87-8t-87 8q-41 8-79.5 24t-73.5 39q-35 24-66 56-32 31-56 66t-39.5 73.5-23.5 79.5q-8 42-8 87 0 56 13 108t40 99q26 48 62 87t82 69v-206h78v314h-315v-78h143q-45-38-80-82-34-44-56.5-93t-34.5-103q-11-55-11-115 0-53 9-102 10-49 28.5-94t46.5-87q29-41 66-79 38-37 79-65t86.5-47 94.5-28 102-9 102 9 94.5 28 86.5 47 79 65q37 38 66 79 28 42 46.5 87t28.5 94q9 49 9 102v39h-79zM647 856l27-10h5l32 71-2 2h-5l-32 13h-2v2l-35 8-20-77 30-7 2-2zM551 959h-39v-79h39v79z" />
<glyph unicode="&#xe919;" glyph-name="uniE919" d="M512 641q-41 0-76.5-14t-64.5-43q-29-28-43.5-62.5t-14.5-73.5q0-40 14.5-74.5t43.5-62.5 64.5-42.5 76.5-14.5 76.5 14.5 64.5 42.5 43.5 62.5 14.5 74.5q0 39-14.5 73.5t-43.5 62.5q-29 29-64.5 43t-76.5 14v0zM603 359q-19-18-41.5-27t-49.5-9-49.5 9-41.5 27q-18 18-27.5 40.5t-9.5 48.5q0 25 9.5 47.5t27.5 40.5q19 18 42 27t49 9q27 0 49.5-9t41.5-27q18-18 27.5-40.5t9.5-47.5q0-26-9.5-48.5t-27.5-40.5v0zM1009 261l13 24-20 20-94 78v3q4 22 6 37.5t2 24.5q0 8-2 23.5t-6 37.5v3l94 79 20 19-13 24-82 139-13 24-30-9-122-40-3 2q-24 19-50 34.5t-53 26.5l-3 1-23 119-7 29h-222l-7-29-23-119-3-1q-27-11-53-26.5t-50-35.5l-3-1-122 40-30 9-13-24-82-139-13-24 20-19 94-79v-3q-4-22-6-37.5t-2-23.5q0-9 2-24.5t6-37.5v-3l-94-79-20-19 13-24 82-139 13-24 30 9 122 41 3-2q24-20 49.5-35.5t53.5-26.5l3-1 23-119 7-28h222l7 28 23 119 3 2q27 10 53 25.5t50 35.5l3 2 122-41 30-9 13 24 82 139zM880 183l-109 36-17 4-19-13q-27-24-58-41.5t-66-29.5l-20-6-5-20-21-108h-106l-21 108-5 20-20 6q-35 12-66 29.5t-58 41.5l-19 13-18-4-108-36-53 87 85 72 18 13-7 22q-4 16-6 34t-2 37 2 36.5 6 33.5l7 22-18 13-85 73 53 86 109-36 17-4 19 14q27 23 58 41t66 29l20 6 5 20 21 108h106l21-108 5-20 20-6q35-11 66-29t58-42l19-13 18 4 108 36 53-86-85-73-18-13 7-21q4-17 6-35t2-36q0-19-2-37t-6-34l-5-22 16-13 85-72-53-87z" />
<glyph unicode="&#xe91a;" glyph-name="uniE91A" d="M873 809q-37 38-78 66-42 28-87 47t-94 28q-49 10-102 10t-102-10q-49-9-94-28t-86-47q-42-28-79-66-38-37-66-78-28-42-46.5-87t-28.5-94q-9-49-9-102t9-102q10-49 28.5-94.5t46.5-86.5q28-42 66-79 37-38 79-66 41-28 86-47t94-28 102-9 102 9 94 28 87 47q41 28 78 66 38 37 66 79 28 41 46.5 86.5t28.5 94.5q9 49 9 102t-9 102q-10 49-28.5 94t-46.5 87q-28 41-66 78zM817 142q-56-55-122-86.5t-144-38.5v37h-78v-37q-78 7-144 38.5t-122 86.5q-55 56-86.5 122.5t-38.5 143.5h37v79h-37q7 78 38 144t85 122q54 55 119.5 86.5t143.5 38.5h5v-37h78v37q78-7 144-38.5t122-86.5q55-56 86.5-122t38.5-144h-37v-79h37q-7-77-38.5-143.5t-86.5-122.5v0zM271 206l334 148 148 335-334-148-148-335zM470 489q9 9 19.5 13.5t22.5 4.5 22.5-4.5 19.5-13.5q8-8 12.5-18.5t4.5-22.5q0-13-4.5-23.5t-12.5-18.5q-9-9-19.5-13t-22.5-4-22.5 4-19.5 13q-8 8-12.5 18.5t-4.5 23.5q0 12 4.5 22.5t12.5 18.5v0z" />
<glyph unicode="&#xe91b;" glyph-name="uniE91B" d="M985 921q-19 19-43 29t-52 10h-756q-28 0-51.5-10t-43.5-29q-19-20-29-43.5t-10-51.5v-757q0-27 10-51t29-43q20-20 43.5-29.5t51.5-9.5h756q28 0 52 9.5t43 29.5q19 19 29 43t10 51v757q0 28-10 51.5t-29 43.5v0zM963 69q0-15-5-27.5t-16-23.5-23.5-16-28.5-5h-756q-16 0-28.5 5t-23.5 16-16 23.5-5 27.5v757q0 15 5 28t16 23q11 11 23.5 16.5t28.5 5.5h756q16 0 28.5-5.5t23.5-16.5q11-10 16-23t5-28v-757zM826 651q0 58-41.5 99.5t-99.5 41.5q-59 0-100.5-41.5t-41.5-99.5q0-10 1.5-19t4.5-18l-110-66q-19 19-44.5 30t-55.5 11q-58 0-99.5-41.5t-41.5-99.5q0-59 41.5-100.5t99.5-41.5q29 0 54 11t44 29l111-67q-2-8-3.5-16.5t-1.5-17.5q0-59 41.5-100.5t100.5-41.5q58 0 99.5 41.5t41.5 100.5q0 52-33.5 91t-82.5 47v129q49 9 82.5 48t33.5 91v0zM339 367q-33 0-56.5 24t-23.5 57 23.5 56.5 56.5 23.5q34 0 57.5-23.5t23.5-56.5-23.5-57-57.5-24zM576 334l-105 63q5 12 7.5 24.5t2.5 26.5q0 12-2.5 24.5t-6.5 23.5l105 64q14-16 32-28t39-17v-134q-21-6-39.5-18t-32.5-29zM765 245q0-34-23.5-57.5t-56.5-23.5q-34 0-57.5 23.5t-23.5 57.5q0 33 23.5 56.5t57.5 23.5q33 0 56.5-23.5t23.5-56.5zM685 571q-34 0-57.5 23.5t-23.5 56.5 23.5 56.5 57.5 23.5q33 0 56.5-23.5t23.5-56.5-23.5-56.5-56.5-23.5z" />
<glyph unicode="&#xe91c;" glyph-name="uniE91C" d="M58 488q13 13 29.5 20t35.5 7 35.5-7 29.5-20q14-14 20.5-30.5t6.5-35.5q0-20-6.5-36.5t-20.5-29.5q-13-14-29.5-20.5t-35.5-6.5-35.5 6.5-29.5 20.5q-14 13-20.5 29.5t-6.5 36.5q0 19 6.5 35.5t20.5 30.5zM170 788q15 15 33.5 22t39.5 7q22 0 40.5-7t32.5-22q15-15 22.5-33.5t7.5-40.5-7.5-40.5-22.5-33.5q-14-15-32.5-22t-40.5-7q-21 0-39.5 7t-33.5 22q-14 15-21.5 33.5t-7.5 40.5 7.5 40.5 21.5 33.5v0zM186 188q12 12 26.5 18t30.5 6q17 0 31.5-6t26.5-18q12-13 18-27.5t6-30.5q0-17-6-31.5t-18-27.5q-12-12-26.5-18t-31.5-6q-16 0-30.5 6t-26.5 18q-12 13-18.5 27.5t-6.5 31.5q0 16 6.5 30.5t18.5 27.5v0zM446 923q17 19 39 28t47 9q26 0 48-9t39-28q18-18 27-40t9-47q0-26-9-48t-27-40q-17-18-39-27.5t-48-9.5q-25 0-47 9.5t-39 27.5q-18 18-27 40t-9 48q0 25 9 47t27 40v0zM481 60q11 10 23.5 15.5t27.5 5.5q16 0 28.5-5.5t23.5-15.5q10-11 15-23.5t5-28.5q0-15-5-28t-15-24q-11-10-23.5-15t-28.5-5q-15 0-27.5 5t-23.5 15q-10 11-15 24t-5 28q0 16 5 28.5t15 23.5zM778 174q9 9 20 13.5t24 4.5q12 0 23-4.5t20-13.5 13.5-20 4.5-24-4.5-24-13.5-20-20-13.5-23-4.5q-13 0-24 4.5t-20 13.5-13.5 20-4.5 24 4.5 24 13.5 20v0zM792 744q6 6 13.5 8.5t16.5 2.5 16-2.5 13-8.5 9-13.5 3-16.5-3-16.5-9-13.5-13-8.5-16-2.5-16.5 2.5-13.5 8.5-8.5 13.5-2.5 16.5 2.5 16.5 8.5 13.5zM906 458q8 8 17 12t19 4 19-4 17-12q7-8 11-17t4-19q0-11-4-20t-11-16q-8-8-17-12t-19-4-19 4-17 12q-8 7-11.5 16t-3.5 20q0 10 3.5 19t11.5 17z" />
<glyph unicode="&#xe91d;" glyph-name="uniE91D" d="M1013 683l-108 199q-7 13-20.5 21.5t-27.5 8.5h-689q-15 0-28.5-8.5t-20.5-21.5l-108-199q-5-9-8-21t-3-22v-3l1-5h-1q0-30 8.5-84.5t49.5-85.5l3-2-1-3v-417h-28q-11 0-19-8t-8-20 8-20 19-8h954q12 0 20 8t8 20-8 20-20 8h-30v401q0 2-0.5 4.5t-1.5 4.5l-1 4 4 3q50 30 58 89.5t8 88.5l1 2v2q0 10-3 22.5t-8 21.5v0zM857 855l109-201h-180l-51 201h122zM540 855h138l50-201h-188v201zM355 855h130v-201h-187zM468 598v-6q-8-72-33.5-84t-42.5-12-42.5 12-32.5 84l-1 6h152zM168 855h129l-57-201h-181l109 201zM57 592v6h152l-1-6q-7-72-32.5-84t-42.5-12-42.5 12-33.5 84v0zM615 40h-500v401l9-1h10q49 0 80 27t43 80l5 22 6-22q12-53 43-80t80-27h2q49 0 80.5 27.5t43.5 81.5l5 21 5-21q9-42 30.5-68t53.5-35l4-1v-405zM576 592v6h152l-1-6q-7-72-32.5-84t-42.5-12-42.5 12-33.5 84v0zM901 40h-231v401l4 1q33 4 56 23t36 51l5 11 5-11q15-38 44-57t70-19h11v-400zM966 592q-7-72-32.5-84t-43.5-12q-17 0-42.5 12t-32.5 84l-1 6h152v-6zM748 284q-10 0-17-6.5t-7-15.5 7-15.5 17-6.5 17 6.5 7 15.5-7 15.5-17 6.5zM311 355q-7 7-19 5.5t-22-11.5l-61-63q-9-9-11-21.5t5-19.5q8-8 19.5-6t21.5 12l61 62q10 10 11.5 22t-5.5 20zM471 350l-171-175q-9-10-11-22t5-20q8-7 19.5-5.5t21.5 11.5l171 176q10 9 11.5 21.5t-5.5 19.5q-7 8-19 6t-22-12v0zM471 185l-2-3q-10-10-11.5-22t5.5-20q7-7 19-5.5t21 11.5l3 3q10 10 11.5 22t-5.5 20q-7 7-19 5.5t-22-11.5z" />
<glyph unicode="&#xe91e;" glyph-name="uniE91E" d="M873 809q-37 37-79 66-41 28-86.5 47t-94.5 28q-49 10-101 10t-101-10q-49-9-94.5-28t-86.5-47q-42-29-79-66-38-38-66-79-28-42-47-87t-29-94q-9-49-9-101 0-53 9-102 10-49 29-94t47-87q28-41 66-79 37-37 79-65 41-29 86.5-47.5t94.5-28.5q49-9 101-9t101 9q49 10 94.5 28.5t86.5 47.5q42 28 79 65 38 38 66 79 28 42 47 87t29 94q9 49 9 102 0 52-9 101-10 49-29 94t-47 87q-28 41-66 79v0zM630 884l17-6q52-16 98-44.5t85-67.5 67.5-85 45.5-98l5-17h-168l-4 7q-22 47-56.5 82t-81.5 57l-8 4v168zM744 448q0-48-17-89t-51-75-75-51-89-17-89 17-75 51q-33 34-50.5 75t-17.5 89q0 47 17.5 88t50.5 75q34 34 75 51t89 17 89-17 75-51 51-75 17-88zM455 894l12 1q14 2 25.5 2.5t19.5 0.5 19.5-0.5 25.5-2.5l12-1v-161l-16 3q-13 2-23.5 3.5t-17.5 1.5-17.5-1.5-23.5-3.5l-16-3v161zM84 582q15 54 43 100.5t67 84.5q39 39 85 67t98 44l17 6v-168l-8-4q-47-22-81.5-57t-56.5-82l-4-7h-165l5 16zM64 403q-1 13-1.5 24.5t-0.5 20.5q0 8 0.5 19.5t1.5 25.5l2 11h158l-3-14q-1-9-1.5-19.5t-0.5-22.5q0-8 1-18.5t4-23.5l3-15h-161l-2 12zM394 12l-17 5q-52 17-98 45t-85 68q-39 39-67.5 85t-45.5 97l-5 17h168l4-7q22-47 56.5-82t81.5-57l8-3v-168zM569 1l-12-1q-14-1-25-2t-20-1-20 1-25 2l-12 1v162l16-3q13-3 23-4.5t18-1.5 18 1.5 23 4.5l16 3v-162zM943 312q-17-51-45.5-97t-67.5-85q-39-40-85-68t-98-45l-17-5v168l8 3q47 22 81.5 57t56.5 82l4 7h168l-5-17zM958 391h-161l3 15q3 13 4 23.5t1 18.5q0 7-1 17.5t-4 23.5l-3 15h161l2-11q1-15 1.5-26t0.5-19q0-9-0.5-20t-1.5-25l-2-12z" />
<glyph unicode="&#xe91f;" glyph-name="uniE91F" d="M1012.962 682.239q-5 18-17.5 29.5t-29.5 16.5q-17 3-33-1.5t-28-16.5l-159-157-111 18-18 111 157 158q12 13 17 28.5t1 32.5q-4 18-16 30t-31 18q-46 11-93 10.5t-93-13.5q-48-12-89-36t-75-58q-37-37-61.5-81.5t-35.5-95.5q-10-45-9.5-89.5t12.5-87.5l-246-248q-28-27-41.5-60t-13.5-71 13.5-70.5 39.5-59.5q27-26 59.5-39.5t70.5-13.5v0q38 0 71 13.5t60 40.5l247 247q44-12 88.5-13t88.5 9q51 12 95.5 36.5t83.5 61.5q34 35 57.5 76.5t36.5 87.5q12 47 13 93.5t-11 93.5v0zM938.962 515.239q-11-37-29.5-70t-45.5-61q-31-30-66.5-49.5t-75.5-28.5-80-7-80 15l-22 8-279-279q-16-16-35.5-24t-42.5-8v0q-23 0-42 7.5t-35 23.5-23.5 35-7.5 42 8 42 25 36l278 281-7 22q-14 39-16 78.5t8 80.5q9 41 28 75.5t49 64.5q28 28 60 46.5t70 28.5q20 6 40 8.5t39 2.5q13 0 26-1t25-4l-170-173 32-201 202-33 173 171q5-32 3.5-64.5t-10.5-64.5h1z" />
<glyph unicode="&#xe920;" glyph-name="uniE920" d="M165 161.5h435v250h-435v-250zM335 198.5v176h104v-176h-104zM563 198.5h-87v176h87v-176zM202 374.5h95v-176h-95v176zM1001 617.5q-2 4-4.5 9.5t-5.5 11.5l-70 154-2 3q-13 19-28 25t-26 6l-707 1q-18 0-35-14t-22-26l-68-149q-2-5-4.5-10t-4.5-10q-10-22-17-41t-7-37v-2q6-42 34.5-70t69.5-33v-329q0-16 11-27t26-11h765q15 0 26 11t11 27v335q33 6 54.5 31t26.5 63v3q0 21-6 38t-17 41v0zM502 559.5q0-34-32-58t-77-24q-39 0-67.5 22t-31.5 54l49 236h159v-230zM539 789.5h151l49-235q-2-32-29-54.5t-64-22.5q-44 0-75.5 24t-31.5 58v230zM37 542.5q1 12 7 27t14 34q3 5 5 9.5t4 9.5l68 150q2 4 10 10.5t13 6.5h147l-48-230h-1v-4t-1-4v-3q-6-32-43.5-54.5t-88.5-22.5q-35 0-57.5 19t-28.5 52v0zM683 107.5v267h148v-267h-148zM868 106.5v305h-222v-305h-505v328q44 4 78.5 21.5t54.5 44.5q17-27 49-44t70-17q41 0 75 17t53 44q18-27 51.5-44t73.5-17q37 0 68 17.5t47 45.5q21-26 59-42.5t86-19.5v-334h-38zM925 477.5q-60 0-104 24t-44 57h-1l-47 231h136q4 0 10-2.5t13-11.5l69-152q3-6 5.5-11.5t4.5-10.5q10-22 14.5-34.5t5.5-27.5q-5-29-21-45.5t-41-16.5v0z" />
<glyph unicode="&#xe921;" glyph-name="uniE921" d="M494.5-46q-100.5 0-192 39t-158 105.5-105.5 158-39 191.5 39 191.5 105.5 158 158 105.5 191.5 39q173 0 308-107 16-13 18-32t-10-34.5-31.5-17.5-34.5 10q-110 87-250 87-108 0-200.5-53.5t-146-145.5-53.5-201 53.5-201 146-145.5 201-53.5 200.5 53.5 146 145.5 54 201q0 29-5 58-2 20 9.5 35.5t30.5 18.5 35-9 18-31q6-36 6-72 0-100-39.5-191.5t-105.5-158-157.5-105.5-192-39zM465 212q-19 0-33 14l-219 219q-14 14-14 33t14 33 33.5 14 32.5-14l186-185 479 478q14 14 33 14t33-13.5 14-33-14-33.5l-512-512q-14-14-33-14z" />
<glyph unicode="&#xe922;" glyph-name="uniE922" d="M754 17h-673v673h428l81 81h-590v-835h835v590l-81-81v-428zM613 960v-81h272l-587-585 61-61 584 588v-272h81v411h-411z" />
<glyph unicode="&#xe923;" glyph-name="uniE923" d="M512 552.5l-24-19-128-124 48-47 72 72v-204h64v204l72-72 48 47-128 124-24 19zM956 430.5q-2 41-18 76t-46 64-66 44.5-78 17.5q-15 35-38.5 63.5t-54.5 50.5q-32 21-67.5 32t-75.5 11q-49 0-91-16t-77-48-55.5-71-26.5-86q-22-4-41-12.5t-35-21.5-27.5-30-18.5-37q-31-8-56-24t-45-40q-19-24-29-52t-10-59q0-38 14-71t42-61q28-27 62-40.5t74-13.5h640q40 0 74 13.5t62 40.5q28 28 42 61t14 71q0 40-17 74.5t-51 63.5v0zM923 204.5q-18-18-41-27t-50-9h-640q-27 0-50 9t-41 27q-19 18-28 40t-9 48q0 24 7.5 44t22.5 37 33.5 27 40.5 13l22 4 4 21q4 15 12.5 28t21.5 23q13 11 28 16t32 5h32v31q0 39 14 72t42 60 62 40.5 74 13.5q33 0 62-9t54-28q25-18 42-42t26-53l8-23h32q33 0 61.5-11.5t51.5-34.5 35-50 12-59v-16l12-10q26-18 39-43t13-56q0-26-9-48t-28-40v0z" />
<glyph unicode="&#xe924;" glyph-name="uniE924" d="M262 416.5q19 0 30 12 10 10 10 28 0 24-14 34-18 12-45 12h-8v43h8q54 0 54 34 0 14-10 23-9 9-28 9-17 0-27-10.5t-11-25.5h-52q2 38 27 59 26 22 65 22 28 0 47.5-9.5t29.5-26.5q10-16 10-37 0-24-11-40-14-19-29-22v-2q21-6 33-24 12-16 12-45 0-22-10.5-40t-30.5-28-49-10q-43 0-69.5 21.5t-28.5 64.5h52q0-19 12-30.5t33-11.5zM441 391q-23 17.5-31 48.5-9 31-9 77 0 69 24 104 23 35 75 35 38 0 62-24 22-22 25-56h-49q-3 18-13 27-13 11-27 11-26 0-38.5-21t-12.5-69q9 15 26.5 24t37.5 9q25 0 44-11t29.5-31 10.5-49q0-26-11-47t-31.5-33-49.5-12q-39 0-62 17.5zM465.5 501q-13.5-11.5-13.5-34t12.5-35.5 35.5-13q21 0 33 12.5t12 33.5q0 22-12 35t-34 13q-20 0-33.5-11.5zM739 375.5q-55 0-78.5 37.5t-23.5 102.5q0 66 23.5 103t78.5 37 78.5-37 23.5-103q0-65-23.5-102.5t-78.5-37.5zM692.5 563q-3.5-19.5-3.5-47.5t3.5-47.5 14.5-31.5 32-12 32 12 14.5 31.5 3.5 47.5-3.5 47.5-14.5 31.5-32 12-32-12-14.5-31.5zM925 456.5q99-51 99-119 0-47-45-85t-118.5-62.5-163.5-37.5-185-13-185 13-163.5 37.5-118.5 62.5-45 85q0 53 63 97 13 9 28 18 8 4 16.5 1.5t13-10.5 2-16.5-10.5-13.5q-13-7-24-15-44-30-44-61 0-28 35-55t95-49.5 149-36 189-13.5 189 13.5 149 36 95 49.5 35 55q0 41-75 80-8 4-10.5 12.5t1.5 16.5 12.5 11 16.5-1zM839 712.5q0 18 12.5 31t30.5 13 31-13 13-31-13-30.5-31-12.5-30.5 12.5-12.5 30.5z" />
<glyph unicode="&#xe925;" glyph-name="uniE925" d="M1010.849 698.952q20.466-117.662 20.466-250.953 0-133.671-20.451-250.119-8.886-45.462-43.052-77.487-34.448-31.957-79.799-38.853-196.339-28.307-376.013-28.307-179.603 0-375.749 28.292-45.557 6.847-79.989 38.854-34.050 31.822-43.11 76.668-20.466 118.103-20.466 250.953 0 132.988 20.378 250.119 9.154 45.775 43.198 77.502 34.396 31.996 79.96 38.854 193.544 28.292 375.778 28.292 182.22 0 375.764-28.292 45.558-6.832 80.033-38.839 34.122-31.982 43.052-76.683zM989.008 447.999q0 129.256-21.065 242.337-6.21 34.338-28.183 56.040t-56.941 28.044q-190.405 26.054-370.819 26.054-180.481 0-372.414-26.317-34.086-6.213-55.683-27.835t-27.847-55.855q-21.065-113.257-21.065-242.469 0-129.278 21.065-242.337 6.21-34.338 28.19-56.048t56.949-28.052q190.482-26.039 370.805-26.039 180.283 0 372.399 26.317 34.132 6.224 55.733 27.845t27.797 55.83q21.080 113.261 21.080 242.483zM380.342 623.41v11.85l373.848-187.261-373.848-187.261v362.672zM424.228 564.193v-232.389l231.979 116.194z" />
<glyph unicode="&#xe926;" glyph-name="uniE926" d="M967 870l-430-422 430-422-87-90-516 512 516 512zM660 870l-431-422 431-422-88-90-515 512 515 512z" />
<glyph unicode="&#xe927;" glyph-name="uniE927" d="M162-64q-45 0-77.5 33.5t-32.5 96.5v764q0 63 32.5 96.5t77.5 33.5q37 0 76-22l662-383q34-19 53-47.5t19-59.5-19-59.5-53-47.5l-662-383q-39-22-76-22zM162 875q-25 0-25-45v-764q0-45 25-45 15 0 33 11l663 382q29 17 29 34t-29 34l-663 382q-18 11-33 11z" />
<glyph unicode="&#xe928;" glyph-name="uniE928" d="M488 448l-431 422 88 90 515-512-515-512-88 90zM795 448l-431 422 88 90 515-512-515-512-88 90z" />
<glyph unicode="&#xe929;" glyph-name="uniE929" d="M803.013 802.5q44-60 60.5-130.5t2.5-142.5q-49-265-330-570l-24-26-24 26q-62 69-108.5 128t-95 133-81 152.5-46.5 157.5q-13 80 5 155t65 136q51 66 124 102.5t156 38.5q87-4 165.5-46.5t130.5-113.5zM507.013 891.5q-68-2-128-32t-100-83q-78-101-56-233 11-70 40.5-141t73-137.5 84-119 91.5-110.5q246 275 289 508 22 117-50 215-43 59-108 94t-136 39zM512.013 456.5q-64 0-110 48.5t-46 117 46 116.5 110 48 110-48 46-116.5-46-117-110-48.5zM512.013 716.5q-37 0-63-28t-26-67 26-66.5 63-27.5 63 27.5 26 66.5-26 67-63 28z" />
<glyph unicode="&#xe92a;" glyph-name="uniE92A" d="M521-60q-3-4-9-4-5 0-10 4l-196 196q-10 9 0 18 9 10 19 0l174-173v966q0 5 3.5 9t9 4 9.5-4 4-9v-966l174 173q10 10 19 0 10-9 0-18z" />
<glyph unicode="&#xe92b;" glyph-name="uniE92B" d="M4 439q-4 3-4 9 0 5 4 10l196 196q9 10 18 0 10-9 0-19l-173-174h966q5 0 9-3.5t4-9-4-9.5-9-4h-966l173-174q10-10 0-19-9-10-18 0z" />
<glyph unicode="&#xe92c;" glyph-name="uniE92C" d="M1024 448q0-6-4-9l-196-197q-9-10-18 0-10 9 0 19l173 174h-966q-5 0-9 4t-4 9.5 4 9 9 3.5h966l-173 174q-10 10 0 19 9 10 18 0l196-196q4-5 4-10z" />
<glyph unicode="&#xe92d;" glyph-name="uniE92D" d="M503 956q3 4 9 4 5 0 10-4l196-196q10-9 0-18-9-10-19 0l-174 173v-966q0-5-3.5-9t-9-4-9.5 4-4 9v966l-174-173q-10-10-19 0-10 9 0 18z" />
<glyph unicode="&#xe92e;" glyph-name="uniE92E" d="M23-10l-11 20q-6 8-3.5 22.5t27 54 84.5 125.5q-120 117-120 272 0 114 68.5 211.5t186.5 154 257 56.5 257-56.5 186.5-154 68.5-211.5-68.5-211.5-186.5-154-257-56.5q-96 0-185 28l-265-96q-8-4-17-4h-22zM512 834q-119 0-220.5-47t-160.5-127.5-59-175.5q0-67 31-129t88-111l25-21-19-27q-38-54-71-102l201 72 12-4q82-28 173-28 119 0 220.5 47t160.5 127.5 59 175.5-59 175.5-160.5 127.5-220.5 47z" />
<glyph unicode="&#xe92f;" glyph-name="uniE92F" d="M553.5 414.5q12.5 5.5 18.5 17t6 27.5q0 20-11.5 33t-30 22-40.5 17q-14 5-30.5 13t-31.5 21-24.5 31.5-9.5 44.5 15.5 47.5 41.5 33.5q17 8 37 11l-1 59h50l-1-59q18-3 32-10 24-11 40-29t25-38l-49-30q-8 16-18 28.5t-23 20.5-31 8-30-5.5-17.5-15-5.5-23 7-23.5 19-17.5 27-13.5l32-12q17-6 33-15t30-22 22.5-31.5 8.5-42.5q0-33-14.5-57t-42.5-37q-19-9-45-12l1-55h-50l1 56q-18 4-33 11-28 13-48.5 35.5t-32.5 50.5l48 31q12-24 25.5-41t30.5-26 38-9q19 0 31.5 5.5zM959 365q27 0 45.5-18.5t18.5-45.5v-294q0-27-18.5-46t-45.5-19h-894q-27 0-45.5 19t-18.5 46v294q0 27 18.5 45.5t45.5 18.5h71q-38 83-38 175 0 112 55.5 207.5t151 151 207.5 55.5 207.5-55.5 151-151 55.5-207.5q0-92-38-175h71zM512 911q-101 0-186.5-50t-135-135.5-49.5-186 49.5-186 135-135.5 186.5-50 186 50 134 134q1 2 3 5 48 85 48 183 0 100-49.5 185.5t-135 135.5-186.5 50zM981 7v294q0 9-6.5 15.5t-15.5 6.5h-94q-63-102-170-155h137q9 0 15.5-6t6.5-15-6.5-15.5-15.5-6.5h-640q-9 0-15.5 6.5t-6.5 15.5 6.5 15 15.5 6h137q-107 53-170 155h-94q-9 0-15.5-6.5t-6.5-15.5v-294q0-9 6.5-15.5t15.5-6.5h894q9 0 15.5 6.5t6.5 15.5z" />
<glyph unicode="&#xe930;" glyph-name="uniE930" d="M955.909 797.5h-886q-30 0-50-20t-20-50v-559q0-29 20-49.5t50-20.5h884q30 0 50 20.5t20 49.5v559q2 30-18 50t-50 20v0zM964.909 666.5l-154-68q-77-33-140.5-59.5t-106.5-42.5q-43-17-51-18-8 0-47 15-39 14-100 39.5t-140 59.5q-78 35-165 74v61q0 5 3 8t8 3h884q5 0 8-3t3-8v-61h-2zM60.909 600.5q59-27 132-59 72-32 138.5-59.5t116.5-45.5q50-19 65-19 12 0 58 17 45 16 109 42.5t139 59.5 146 64v-432q0-5-3-8t-8-3h-884q-5 0-8 3t-3 8v432h2z" />
<glyph unicode="&#xe931;" glyph-name="uniE931" d="M109.5 433l129-131q5-5 5-13t-6-14q-5-5-13-5t-14 5l-173 177 173 177q6 5 14 5t13-5q6-6 6-14t-5-13l-129-131h557v-38h-557zM919.5 960q27 0 47-20.5t20-48.5v-886q0-28-20-48.5t-47-20.5h-508q-28 0-47.5 20.5t-19.5 48.5v289h38v-289q0-12 8.5-21.5t20.5-9.5h508q12 0 20 9.5t8 21.5v886q0 12-8 21.5t-20 9.5h-508q-12 0-20.5-9.5t-8.5-21.5v-289h-38v289q0 28 19.5 48.5t47.5 20.5h508z" />
<glyph unicode="&#xe932;" glyph-name="uniE932" d="M1024 785v-674q0-21-14-36.5t-34-15.5h-928q-20 0-34 15.5t-14 36.5v674q0 22 14 37t34 15h928q20 0 34-15t14-37zM157 764q-2-7 4-12l340-257q2-1 5-1t6 1l351 257q6 5 4 12t-10 7h-690q-8 0-10-7zM964 135v587q0 6-5.5 9t-10.5-1l-423-312-19-11-18 10-412 313q-5 4-11 1-5-3-5-9v-587q0-10 10-10h884q10 0 10 10z" />
<glyph unicode="&#xe933;" glyph-name="uniE933" d="M263 633q6 0 10-4t4-10-4-10l-94-95q-5-4-10.5-4t-10.5 4l-50 51q-4 4-4 10t4 10 10 4 10-4l40-40 85 84q4 4 10 4zM846 327q9 0 16-6.5t7-16-7-16.5l-150-150q-7-6-16.5-6t-15.5 6l-81 81q-6 6-6 15.5t6.5 16 16 6.5 15.5-6l65-65 134 134q7 7 16 7zM263 413q6 0 10-4.5t4-10-4-9.5l-95-95q-4-4-9.5-4t-10.5 4l-50 51q-4 4-4 10t4 10 10 4 10-4l40-41 85 85q4 4 10 4zM263 193q6 0 10-4.5t4-10-4-10.5l-95-94q-4-4-9.5-4t-10.5 4l-50 51q-4 4-4 10t4 10 10 4 10-4l40-41 85 84q4 5 10 5zM369 604q-6 0-10 4.5t-4 10.5 4 10 10 4h216q6 0 10.5-4t4.5-10-4.5-10.5-10.5-4.5h-216zM479 508.5q0-5.5-4-10t-10-4.5h-96q-6 0-10 4.5t-4 10 4 10 10 4.5h96q6 0 10-4.5t4-10zM731 523q121 0 207-86t86-207.5-86-207.5-207-86q-7 0-22 1-2-1-5-1h-637q-28 0-47.5 19.5t-19.5 47.5v756q0 28 19.5 48t47.5 20h81v45q0 6 4 10.5t10 4.5h109l2 9q8 28 31.5 46t53 18 53-18 31.5-46l2-9h109q6 0 10-4.5t4-10.5v-45h81q27 0 47-20t20-48v-237q15 1 16 1zM176 858v-91h363v91h-108q-6 0-10 4.5t-4 9.5q0 25-17.5 42.5t-42 17.5-42-17.5-17.5-42.5q0-5-4-9.5t-10-4.5h-108zM67-36h539q-76 36-122.5 107.5t-46.5 157.5q0 110 71.5 192t178.5 98v240q0 17-11.5 28t-27.5 11h-81v-45q0-6-4-10t-10-4h-391q-6 0-10 4t-4 10v45h-81q-16 0-27.5-11t-11.5-28v-756q0-16 11.5-27.5t27.5-11.5zM730.5-36q109.5 0 187.5 78t78 187.5-78 187-187.5 77.5-187-77.5-77.5-187 77.5-187.5 187-78z" />
<glyph unicode="&#xe934;" glyph-name="uniE934" d="M437.167 736q-142-69-161-191 71-19 116-77.5t45-133.5q0-90-64-154t-154.5-64-154.5 64-64 154v5q-1 15 1 34t9.5 53.5 29 78 54.5 85.5q89 115 261 178l37 12zM863.167 545q70-19 115.5-77.5t45.5-133.5q0-90-64-154t-154.5-64-154.5 64-64 154v5q-1 15 1 34t9.5 53.5 28.5 78 54 85.5q31 39 72.5 73t79.5 54.5 72 35.5 54 21l20 6 46-44q-143-69-161-191z" />
<glyph unicode="&#xe935;" glyph-name="uniE935" d="M512-63q-23 0-47 9t-38 18-38 27q-36 26-53 33t-63 15q-29 5-45 8.5t-39 13.5-38.5 25.5-25.5 38.5-13.5 39-8.5 45q-8 46-15 63t-33 53q-18 24-27 38t-18 38-9 47 9 47 18 38 27 38q26 36 33 53t15 63q5 29 8.5 45t13.5 39 25.5 38.5 38.5 25.5 39 13.5 45 8.5q46 8 63 15t53 33q24 18 38 27t38 18 47 9 47-9 38-18 38-27q36-26 53-33t63-15q29-5 45-8.5t39-13.5 38.5-25.5 25.5-38.5 13.5-39 8.5-45q8-46 15-63t33-53q18-24 27-38t18-38 9-47-9-47-18-38-27-38q-26-36-33-53t-15-63q-5-29-8.5-45t-13.5-39-25.5-38.5-38.5-25.5-39-13.5-45-8.5q-46-8-63-15t-53-33q-24-18-38-27t-38-18-47-9zM512 894q-13 0-28.5-7t-26-14-29.5-21q-43-31-66-41-25-10-79-19-68-11-86-29t-29-86q-9-54-19-79-10-24-41-66-14-19-21-29.5t-14-26-7-28.5 7-28.5 14-26 21-29.5q31-43 41-66 10-25 19-79 11-68 29-86t86-29q54-9 79-19 23-10 66-41 19-14 29.5-21t26-14 28.5-7 28.5 7 26 14 29.5 21q43 31 66 41 25 10 79 19 68 11 86 29t29 86q9 54 19 79 10 23 41 66 14 19 21 29.5t14 26 7 28.5-7 28.5-14 26-21 29.5q-31 42-41 66-10 25-19 79-11 68-29 86t-86 29q-54 9-79 19-24 10-66 41-19 14-29.5 21t-26 14-28.5 7zM606 695h87l-277-493h-86zM297.5 511.5q-30.5 29.5-30.5 81t30.5 80.5 79 29 79-29 30.5-80.5-30.5-81-79-29.5-79 29.5zM376 652q-45 0-45-59 0-30 12-45 12-16 33-16 22 0 34 16 12 15 12 45 0 59-46 59zM725.5 386q30.5-29 30.5-81t-30.5-81-78.5-29-78.5 29-30.5 81 30.5 81 78.5 29 78.5-29zM680 260q12 16 12 45 0 30-12 45t-33.5 15-33.5-15-12-45 12-45 33.5-15 33.5 15z" />
<glyph unicode="&#xe936;" glyph-name="uniE936" d="M1004 734.5q-29 68-93.5 112.5t-134.5 45.5h-6q-101 0-164.5-32.5t-93.5-59.5q-30 27-93.5 59.5t-164.5 32.5h-7q-69-1-133.5-45.5t-93.5-112.5q-9-21-16-53t-2.5-71 25.5-84q20-45 65-92 52-55 109-114 56-60 108-113.5t94-97.5q42-43 64-66l19-19 23-21 21 19 41 41t100 101 130 133q69 72 131 137 45 47 65 92 21 45 25.5 84t-2.5 71q-7 31-16 53v0zM889 473.5q-48-51-103-110-55-58-107.5-112.5t-96.5-98.5q-44-45-69-67-13 13-34 34.5t-48 48.5q-30 31-68 68-37 38-76.5 78.5t-78.5 81.5q-39 40-73 77-54 59-70 120.5t9 117.5q22 53 71.5 87.5t102.5 35.5h6q119 0 176-45.5t59-48.5l23-30 23 30q1 0 58.5 47t176.5 47h6q53-1 102.5-35.5t71.5-87.5q25-56 9-117.5t-70-120.5v0z" />
<glyph unicode="&#xe937;" glyph-name="uniE937" d="M351 960v-48h-303v-303h-48v351h351zM0 287h48v-303h303v-48h-351v351zM1024 609h-48v303h-303v48h351v-351zM976 287h48v-351h-351v48h303v303zM750 456v-43h-217v-216h-42v216h-217v43h217v216h42v-216h217z" />
<glyph unicode="&#xe938;" glyph-name="uniE938" d="M971.529 30q-17-18-50-43.5t-56-37.5q-26-13-103-13-39 0-79.5 4.5t-98 21-112.5 42.5-120 73.5-123 110.5q-66 71-111.5 150.5t-65 147.5-28 130.5-4 110 10 76.5 10.5 37q15 23 42.5 54t47.5 45q27 21 53 21 38 0 65-42l145-223q17-26 11.5-57t-31.5-48l-7-5q-63-39-80-50l-2-2-1-3q-11-66 122-215 83-92 152-92 13 0 23 3l2 1 58 73q22 28 59 28 26 0 48-16l211-162q34-26 37-58 3-31-25-62zM938.529 86v5l-3 2q-5 5-12 11l-211 162q-5 4-12 4-9 0-13-6l-62-77q-7-8-25-15t-42-7q-95 0-195 111-89 99-120 168.5t-9 119.5l3 8 7 5q13 8 97 60l2 1q5 4 5.5 11.5t-3.5 13.5l-145 223q-7 11-13 15l-2 2-4-1q-6-2-15-9-14-11-37.5-36.5t-36.5-44.5l-1-2q-3-12-6-27.5t-6-52.5-1-75 13-91.5 31.5-105 59-113 90.5-118.5q54-58 113.5-102t110-68 103.5-39 90-19.5 73-4.5q48 0 77 7l2 1q19 10 46.5 31.5t39.5 35.5q10 10 11 17zM975.029 406q-12.5 0-21.5 8.5t-9 21.5q0 91-35.5 173.5t-95.5 142.5-142.5 95.5-173.5 35.5q-13 0-21.5 9t-8.5 21.5 8.5 21 21.5 8.5q103 0 197-40t162-108 108-162 40-197q0-13-8.5-21.5t-21-8.5zM779.029 426q-12.5 0-21 8.5t-8.5 21.5q0 92-65.5 157.5t-158.5 65.5q-12 0-21 9t-9 21.5 9 21.5 21 9q117 0 200.5-83.5t83.5-200.5q0-13-9-21.5t-21.5-8.5z" />
<glyph unicode="&#xe939;" glyph-name="uniE939" d="M960 923q26 0 45-19t19-45v-398q0-26-18.5-45t-45.5-19h-73l-99-97h-1v-0.5t-1-0.5h-1l-1-1h-1l-2-1h-8l-1 1h-2v1h-1l-1 1h-1l-1 1q-1 1-2 1v0 1l-2 2v1q-1 0-1 1v0 1l-1 1v3q-1 0-1 1v0 84h-303q-27 0-45.5 19t-18.5 45v398q0 26 18.5 45t45.5 19h85q8 0 13-5.5t5-13-5-13-13-5.5h-85q-12 0-20-8t-8-19v-398q0-11 8-19.5t20-8.5h321q13 0 17-12 2-3 2-7v-55l69 68q1 1 2 1 5 5 12 5h81q11 0 19.5 8.5t8.5 19.5v398q0 11-8.5 19t-19.5 8h-351q-7 0-12.5 5.5t-5.5 13 5.5 13 12.5 5.5h351zM507 647q0 24 17.5 41.5t42 17.5 42-17.5 17.5-41.5-17.5-41.5-42-17.5-42 17.5-17.5 41.5zM566.5 669q-9.5 0-16-6.5t-6.5-15.5 6.5-15.5 16-6.5 16.5 6.5 7 15.5-7 15.5-16.5 6.5zM771 647q0-24-17.5-41.5t-42-17.5-42 17.5-17.5 41.5 17.5 41.5 42 17.5 42-17.5 17.5-41.5zM689 647q0-9 6.5-15.5t16-6.5 16.5 6.5 7 15.5-7 15.5-16.5 6.5-16-6.5-6.5-15.5zM916 647q0-24-17.5-41.5t-42-17.5-42 17.5-17.5 41.5 17.5 41.5 42 17.5 42-17.5 17.5-41.5zM834 647q0-9 6.5-15.5t16-6.5 16.5 6.5 7 15.5-7 15.5-16.5 6.5-16-6.5-6.5-15.5zM864 166v-2q0-75-51.5-129.5t-126.5-59.5q-15-2-31-2-64 0-137 28-72 27-151 81-89 61-152 125-104 99-158 211-4 6-1.5 13.5t9.5 10.5 14 1 10-9q52-106 151-201h1q9-9 27-26t67.5-56 98.5-69 114-52.5 120-19.5q3 1 6 1 63 0 108 44l-252 153q-36-10-74-7-34 2-66 16-8 3-16 7-11 5-22 13-6 4-11 7l-1 1q-82 64-108 134-4 9-6 18-14 53-2 105 1 2 1 4l-149 260q-40-46-40-121v-2q1-60 19-121 2-7-2-13.5t-11-8.5q-2-1-5-1-14 0-17 13-19 66-20 132v3q1 83 45 139 47 57 125 65 7 1 12-3 5-3 12-9t24-27 32.5-47.5 32-73.5 26.5-102q1-9-5-15l-1-2q-32-33-43-77t1-88q2-8 5-15 23-60 97-119l8-6q10-6 19-10h1q7-4 14-7 26-11 54-13 83-7 140 54l2 1q5 5 12 6 5 0 13-1t30-7 47.5-17.5 66.5-35.5 87-58l1.5-1.5t1-0.5 0.5-1v0l2-2v-1.5t1-0.5v-2.5t1-0.5v-3zM104 791l138-241q12 23 29 42-20 107-66 176-19 29-38 46-36-5-63-23zM621 261q-22-22-48-36l232-141q20 33 22 71-131 95-206 106z" />
<glyph unicode="&#xe93a;" glyph-name="uniE93A" d="M929 760q13 0 22.5-10t9.5-23v-635q0-65-43.5-110.5t-104.5-45.5h-602q-61 0-104.5 45.5t-43.5 110.5v634q0 14 9.5 24t22.5 10h195q15 85 79 142.5t147.5 57.5 147.5-57.5 79-142.5h186zM516.5 892q-57.5 0-102-37.5t-58.5-94.5h321q-14 57-58.5 94.5t-102 37.5zM897 92v602h-770v-602q0-37 24.5-63t59.5-26h602q35 0 59.5 26t24.5 63z" />
<glyph unicode="&#xe93b;" glyph-name="uniE93B" d="M241 806.5v-119h783v119h-783zM241 388.5h783v119h-783v-119zM241 89.5h783v120h-783v-120zM0 687.5h120v119h-120v-119zM0 388.5h120v119h-120v-119zM0 89.5h120v120h-120v-120z" />
<glyph unicode="&#xe93c;" glyph-name="uniE93C" d="M0 809h1024v-120h-1024v120zM0 388v120h1024v-120h-1024zM0 87v120h663v-120h-663z" />
<glyph unicode="&#xe93d;" glyph-name="uniE93D" d="M1024 290.5q-1 12-4 25t-10 26l-134 272q-11 23-27.5 35.5t-34.5 12.5-34-12-28-35l-137-273q-6-13-9.5-26t-4.5-25v0-41q0-73 61.5-123.5t149.5-50.5q89 0 150.5 50.5t61.5 123.5v41zM812 129.5q-82 0-118.5 38.5t-36.5 71.5h311q-4-41-39-75.5t-117-34.5v0zM964 290.5h-309q0 1 1 2.5t1 3.5l149 284q3 6 5 8t3 2l2.5-2t5.5-8l145-283q1-2 1.5-3.5t1.5-2.5q-2-1-3-1h-3zM409 341.5l-134 272q-11 23-27.5 35.5t-34.5 12.5-34-12-28-35l-137-273q-6-13-9.5-26t-4.5-25v0-41q0-73 61-123.5t150-50.5 150.5 50.5 61.5 123.5v41h-1q0 12-3.5 25t-9.5 26v0zM211 129.5q-82 0-118.5 38.5t-36.5 71.5h311q-4-41-39-75.5t-117-34.5v0zM363 290.5h-309q0 1 1 2.5t1 3.5l148 284q4 6 6 8t3 2l2.5-2t5.5-8l145-283q1-2 1.5-3.5t1.5-2.5q-2-1-3-1h-3zM584 704.5h342q13 0 22 9.5t9 22.5v7q0 13-9 22t-22 9h-342q-10 20-29 33t-43 13-43.5-13-28.5-33h-342q-13 0-22-9t-9-22v-7q0-13 9-22.5t22-9.5h342q6-13 16-23t24-16v-101q0-13 9.5-23t22.5-10 22.5 9.5 9.5 23.5v101q14 6 24 16t16 23v0z" />
<glyph unicode="&#xe93e;" glyph-name="uniE93E" d="M918 907.5h-812q-44 0-75-30t-31-72v-487q0-42 31-72t75-30h260v-112h-148v-116h588v116h-148v112h260q44 0 75 30t31 72v487q0 42-31 72t-75 30v0zM760 60.5v-28h-496v28h496zM412 104.5v109h200v-109h-200zM979 318.5q0-24-18-41.5t-43-17.5h-812q-25 0-43 17.5t-18 41.5v59h934v-59zM979 399.5h-934v406q0 24 18 41.5t43 17.5h812q25 0 43-17.5t18-41.5v-406zM512 280.5q15 0 25.5 10.5t10.5 24.5q0 15-10.5 25t-25.5 10-25.5-10-10.5-25q0-14 10.5-24.5t25.5-10.5v0zM512 328.5q6 0 10-3.5t4-9.5q0-5-4-9t-10-4-10 4-4 9q0 6 4 9.5t10 3.5z" />
<glyph unicode="&#xe93f;" glyph-name="uniE93F" d="M949 941.5h-874q-31 0-53-22t-22-53v-694q0-31 22-53t53-22h275v-105h-137v-38h598v38h-142v105h280q31 0 53 22t22 53v694q0 31-22 53t-53 22v0zM75 904.5h874q16 0 27-11t11-27v-515h-950v515q0 16 11 27t27 11v0zM632-7.5h-245v105h245v-105zM949 135.5h-874q-16 0-27 11t-11 26v142h950v-142q0-15-11-26t-27-11v0zM512 278.5q-19 0-33-13.5t-14-32.5q0-20 14-33.5t33-13.5 33 13.5 14 33.5q0 19-14 32.5t-33 13.5zM512 204.5q-12 0-20 8t-8 20q0 11 8 19.5t20 8.5 20-8.5 8-19.5q0-12-8-20t-20-8z" />
<glyph unicode="&#xe940;" glyph-name="uniE940" d="M709 660h-158q-6 0-10.5-4.5t-4.5-10.5q0-7 4.5-11.5t10.5-4.5h158q6 0 11 4.5t5 11.5q0 6-5 10.5t-11 4.5zM831 920l-30 9-127 30q-8 2-15-2.5t-9-11.5v-4l-2-17q-8-35-47-58.5t-89-23.5-88.5 23-47.5 58l-2 16v6q-2 6-7.5 10.5t-12.5 4.5q-1 0-2-0.5t-2-0.5l-129-31-28-8q-12-2-40-18-29-15-60.5-64t-58.5-141-34-248q0-4 1.5-8t3.5-7q3-3 7-4.5t8-1.5h138v-433q0-25 17-42t42-17h590q25 0 42 17t17 42v433h138q4 0 8 1.5t7 4.5q2 3 3.5 7t1.5 8q-7 156-34 248t-58.5 141-60.5 64q-29 16-40 18v0zM984 467h-118v138q0 8-5.5 14t-13.5 6-14-6-6-14v-630h-630v630q0 8-5.5 14t-14.5 6q-8 0-13.5-6t-5.5-14v-138h-117l1 21q8 118 29 191 20 74 42.5 116t42.5 59 27 20q2 1 7.5 3.5t8.5 3.5h2l32 9 103 25 7-15q17-44 64-71t105-27 105 27 64 71l7 15 104-25 36-10q4-1 26-13 21-11 46.5-51t48.5-118q24-77 33-210l2-21z" />
<glyph unicode="&#xe941;" glyph-name="uniE941" d="M511.5 425q-110.5 0-189 78.5t-78.5 189 78.5 189 189 78.5 189-78.5 78.5-189-78.5-189-189-78.5zM511 894q-83 0-142-59t-59-142 59-142 142-59 142 59 59 142-59 142-142 59zM665 367q123 0 210.5-83t87.5-201v-147h-901l-1 147q0 118 87.5 201t210.5 83h306zM359 302q-96 0-164-64t-68-155v-82h771v83q0 90-68.5 154t-164.5 64h-306z" />
<glyph unicode="&#xe942;" glyph-name="uniE942" d="M804 193.037q-5 4-11 5.5t-13 1.5q32 30 57 66 26 36 43.5 76.5t27.5 84.5q9 45 9 91 0 92-35 172-34 80-94.5 140t-140.5 95q-81 35-172 35-92 0-173-35-80-35-140-95t-95-140-35-172q0-91 35-171t95-140 140-95q81-35 173-35 77 0 146.5 25t126.5 70q-2-7-1-13.5t4-12.5l20-33q20-32 50-71.5t64-72.5 63-33q16-1 30 11.5t14 27.5q0 28-29 66-30 38-65 71.5t-65 57.5l-29 23zM475 151.037q-77 0-144 29t-117 78.5-79 116.5-29 143 29 143 79 117 117 79 144 29q76 0 143-29t117-79 79-117 29-143-29-143-79-116.5-117-78.5-143-29v0z" />
<glyph unicode="&#xe943;" glyph-name="uniE943" d="M1021.5-52l-0.5-1q0-1-1-2l-3-3t-2-1l-2-2h-1q-1-1-3-1l-1-1h-988q-8 0-14 6t-6 14v688q0 13 12 19l3 1 283 223q88 71 213.5 71t213.5-71q7-5 8-13.5t-4.5-15-13.5-7.5-15 5q-78 62-188.5 62t-188.5-62l-270-214 163-139v221q0 9 5.5 14.5t14.5 5.5h552q9 0 14.5-5.5t5.5-14.5v-224l169 147-213 161q-7 5-8 13t4 15 13 8 15-4l228-172q10-8 7-20 1-3 1-4v-691t-1-2v-2q-1-1-1.5-2zM950-23l-434 376-446-376h880zM640 299l344-298v600zM256 705v-236l51-44q6-6 7-14t-4.5-14.5-14-7-14.5 4.5l-241 207v-595l350 294-58 50q-6 5-6.5 13.5t4.5 15 13.5 7 14.5-4.5l64-55 81 69q14 11 27 0l79-69 159 139v240h-512zM377 436q-8 0-14 5.5t-6 14 6 14.5 14 6h283q9 0 14.5-6t5.5-14.5-5.5-14-14.5-5.5h-283zM377 584q-8 0-14 6t-6 14 6 14 14 6h283q9 0 14.5-6t5.5-14-5.5-14-14.5-6h-283z" />
<glyph unicode="&#xe944;" glyph-name="uniE944" d="M756 960h-488q-26 0-44.5-19t-18.5-45v-897q0-26 18.5-44.5t44.5-18.5h488q26 0 44.5 18.5t18.5 44.5v897q0 26-18.5 45t-44.5 19v0zM779-1q0-10-7-16.5t-16-6.5h-488q-9 0-16 6.5t-7 16.5v81h534v-81zM779 91h-534v805q0 10 7 17t16 7h488q9 0 16-7t7-17v-805zM303 903q-17 0-29.5-12.5t-12.5-30.5q0-17 12.5-29.5t29.5-12.5q18 0 30.5 12.5t12.5 29.5q0 18-12.5 30.5t-30.5 12.5zM303 823q-15 0-26 11t-11 26q0 16 11 27t26 11q16 0 27-11t11-27q0-15-11-26t-27-11zM484-7h57q10 0 17.5 7.5t7.5 17.5v13q0 11-7.5 18.5t-17.5 7.5h-57q-11 0-18.5-7.5t-7.5-18.5v-13q0-10 7.5-17.5t18.5-7.5zM468 31q0 6 4.5 10.5t11.5 4.5h57q6 0 10.5-4.5t4.5-10.5v-13q0-6-4.5-10.5t-10.5-4.5h-57q-7 0-11.5 4.5t-4.5 10.5v13zM303 880q-8 0-13.5-6t-5.5-14 5.5-13.5 13.5-5.5 14 5.5 6 13.5-6 14-14 6zM303 854q-2 0-4 2t-2 4q0 3 2 5t4 2q3 0 5-2t2-5q0-2-2-4t-5-2z" />
<glyph unicode="&#xe945;" glyph-name="uniE945" d="M757 960h-490q-31 0-53.5-22.5t-22.5-54.5v-871q0-32 22.5-54t53.5-22h490q31 0 53.5 22t22.5 54v871q0 32-22.5 54.5t-53.5 22.5v0zM267 929h490q18 0 31.5-13.5t13.5-32.5v-78h-580v78q0 19 13.5 32.5t31.5 13.5v0zM222 774h580v-624h-580v624zM757-34h-490q-19 0-32 13.5t-13 32.5v107h580v-107q0-19-13.5-32.5t-31.5-13.5v0zM512 94q-22 0-38-15.5t-16-38.5q0-22 16-38t38-16 38 16 16 38q0 23-16 38.5t-38 15.5v0zM512 17q-10 0-16.5 7t-6.5 16q0 10 6.5 17t16.5 7 16.5-7 6.5-17q0-9-6.5-16t-16.5-7z" />
<glyph unicode="&#xe946;" glyph-name="uniE946" d="M1024 565q0 59-21.5 111t-61.5 89q-33 30-73 44t-85 10q-78-6-117.5-40.5t-56.5-80.5q-5 16-14 29t-22 23l66 106-13 8-66-106q-11 6-23.5 9.5t-25.5 3.5q-12 0-23-3t-21-8l-62 105-13-8 62-104q-14-10-24.5-23.5t-15.5-29.5q-16 46-55 79.5t-118 39.5q-45 4-85-10t-73-44q-40-37-61.5-89t-21.5-111 16.5-105 48.5-78q18-18 39-29.5t42-19.5q-19-24-29.5-54t-10.5-61q0-77 55-132t132-55q33 0 65.5 13.5t60.5 39.5q12-26 36-39.5t59-13.5q37 0 57 16t30 37q27-25 62.5-39t73.5-14q77 0 132 55t55 132q0 31-10 60t-28 54q20 6 39.5 17t36.5 28q31 30 46.5 77.5t15.5 110.5v0zM715 338q-22 0-43 9.5t-39 20.5q-7 3-13.5 6.5t-12.5 6.5q-1 64 0 123.5t5 97.5q21 20 47.5 30.5t55.5 10.5q63 0 107.5-44.5t44.5-107.5-44.5-108-107.5-45v0zM511 748q33 0 56.5-23.5t23.5-56.5q0-27-16.5-48.5t-41.5-28.5q-4 0-7.5-1t-7.5-1h-6q-8 0-14 1t-11 2q-24 8-40 28.5t-16 47.5q0 33 23.5 56.5t56.5 23.5v0zM169 491q0 63 44.5 107.5t107.5 44.5q23 0 45.5-7t41.5-21q4-39 5.5-102.5t1.5-131.5q-8-4-15.5-8.5t-15.5-8.5q-15-10-31-18t-32-8q-63 0-107.5 45t-44.5 108v0zM23 565q0 53 20 101.5t55 81.5q30 27 65.5 39.5t75.5 9.5q86-7 120-47t45-106q-19 11-40 16.5t-43 5.5q-72 0-123.5-51.5t-51.5-123.5q0-49 24.5-89t63.5-63q-35 3-77.5 15t-75.5 44q-29 29-43.5 70.5t-14.5 96.5v0zM129 218q0 30 10.5 58t29.5 50q36-9 67.5-10t48.5 0h13v1q6 0 11.5-0.5t11.5-0.5q21 0 39.5 9t35.5 19l10 6t9 6q0-88-1.5-160t-2.5-87q-25-27-56-41.5t-62-14.5q-68 0-116 48.5t-48 116.5v0zM514 53q-33 0-52.5 13.5t-27.5 41.5v0q0 15 2 74 1 58 1.5 132.5t-0.5 152.5q0 77-4 129 12-10 22.5-15.5t20.5-9.5q8-3 17-4.5t18-1.5q8 0 15.5 1.5t15.5 3.5q12 3 23.5 8t22.5 12q-4-49-4-121t1-143 2-129q2-59 3-82l-3-7q-9-24-25-39.5t-48-15.5v0zM902 218q0-68-48.5-116.5t-116.5-48.5q-35 0-68 14t-56 38v0q0 2-2.5 78.5t-3.5 172.5q4-2 7.5-4t7.5-4q19-11 42.5-21.5t50.5-10.5h10t9 1l1-1q2 1 11 1.5t19 0.5q18-1 43.5 0t53.5 7q19-22 29.5-50t10.5-57v0zM804 341q38 23 61.5 62.5t23.5 87.5q0 72-51 123.5t-123 51.5q-27 0-52-8t-47-23q10 60 43.5 107t125.5 55q40 3 75.5-9.5t65.5-39.5q35-33 55-81.5t20-101.5q0-58-14-101.5t-41-70.5q-31-31-69.5-41t-72.5-11v0z" />
<glyph unicode="&#xe947;" glyph-name="uniE947" d="M969 699.5h-247v104q0 22-16 38t-39 16h-310q-23 0-39-16t-16-38v-104h-247q-23 0-39-16t-16-38v-553q0-22 16-38t39-16h914q23 0 39 16t16 38v553q0 22-16 38t-39 16v0zM357 807.5h310q1 0 2-1.5t1-2.5v-100q0-1-1-2.5t-2-1.5h-310q-1 0-2 1.5t-1 2.5v100q0 1 1 2.5t2 1.5v0zM604 326.5q0-1-1-2.5t-3-1.5h-176q-2 0-3 1.5t-1 2.5v73q0 1 1 2t3 1h176q2 0 3-1t1-2v-73zM52 402.5h317q-1-1-1-1.5v-74.5q0-23 16.5-39t39.5-16h176q23 0 39.5 16t16.5 39v74.5t-1 1.5h317v-310q0-1-1-2t-2-1h-914q-1 0-2 1t-1 2v310zM55 648.5h914q1 0 2-1t1-2v-192h-920v192q0 1 1 2t2 1v0z" />
<glyph unicode="&#xe948;" glyph-name="uniE948" d="M186 634q0 134 96 230t230 96 230-96 96-230q0-81-39.5-154t-106.5-116q128-55 206.5-170t78.5-258h-93q0 154-109 263t-263 109-263-109-109-263h-93q0 143 78.5 257.5t206.5 170.5q-67 43-106.5 116t-39.5 154zM745 634q0 96-68.5 164.5t-164.5 68.5-164.5-68.5-68.5-164.5 68.5-164.5 164.5-68.5 164.5 68.5 68.5 164.5z" />
<glyph unicode="&#xe949;" glyph-name="uniE949" d="M512 960q-106 0-199-41-93-40-162.5-109.5t-110.5-162.5q-40-93-40-199t40-199q41-94 110.5-163.5t162.5-109.5 199-40 199 40 162.5 109.5 110.5 163.5q40 93 40 199t-40 199q-41 93-110.5 162.5t-162.5 109.5q-93 41-199 41zM945 313q-80 51-149 91-70 40-132 70t-119 52-112 37q-52 14-94.5 23t-80.5 14q6 17 13.5 34.5t16.5 34.5q31-9 65-13.5t73-4.5q41 0 88 5 47 4 102.5 12.5t119.5 20.5q65 12 142 26 41-56 64-124t23-143q0-35-5-69t-15-66v0zM267 723q-20 9-39.5 23t-27.5 30q41 39 90 67t104 43q-38-35-69.5-77t-57.5-86v0zM846 754q-101-19-181-33t-144.5-20.5-115.5-5.5q-52 2-96 14 33 56 77.5 106.5t97.5 84.5q7 1 14 1h14q50 0 96-10 47-10 89.5-29.5t80.5-46.5q37-27 68-61v0zM169 744q15-22 37.5-37t40.5-23q-10-20-18.5-40t-15.5-39q-32 3-62.5 4t-61.5 1q14 37 34 70.5t46 63.5v0zM192 526q-2-14-4-27.5t-4-26.5q-30-2-63-16.5t-61-45.5q-1 9-1 18.5v19.5q0 30 4 60t11 58q32 0 63-0.5t63-3.5q-2-9-4-18.5t-4-17.5zM70 347q22 42 52.5 59.5t57.5 21.5q-5-63 0-115 5-51 15.5-94.5t25.5-78.5 30-63q-33 24-62 53-30 30-53 64.5t-40 72.5-26 80v0zM330 32l-1.5 3t-1.5 2q-18 28-39 64-20 35-36.5 81.5t-25.5 106.5q-8 60-3 137 56-15 112-46 55-32 111-82.5t112-118.5q55-69 112-156-37-14-76.5-21.5t-81.5-7.5q-48 0-94 10t-88 28v0zM711 40q-60 93-120 167-59 73-119 126t-120 87-121 49h-1.5t-1.5 1q1 11 3 23t4 25q2 9 4.5 19t4.5 20q38-5 81.5-13.5t95.5-22.5q55-15 111-37 56-21 117.5-51.5t130.5-70.5q69-39 150-91-16-38-39-72-22-34-50-63t-61-54q-32-24-69-42v0z" />
<glyph unicode="&#xe94a;" glyph-name="uniE94A" d="M958 497.5h-779v256q0 49 33.5 83.5t80.5 34.5q22 0 42.5-9.5t36.5-27.5q-46-16-75.5-57.5t-29.5-89.5v-26h303v26q0 58-37 102t-93 52q-23 42-62 65.5t-84 23.5q-70 0-119.5-52t-49.5-125v-256h-62q-27 0-45-19.5t-18-47.5q0-26 14.5-43.5t38.5-22.5v-74q0-83 43.5-149.5t115.5-95.5l-13-41q-3-12 2.5-23t16.5-14q2-1 4-1h4q9 0 17 6t10 15l12 40q2 0 3.5-0.5t3.5-0.5q7-2 15-3t15-1h417q9 0 17.5 1.5t16.5 2.5q2 1 3.5 1t3.5 1l12-42q2-9 9.5-15t17.5-6q2 0 4 0.5t4 1.5q6 1 10.5 5t6.5 9q3 5 3.5 11t-0.5 12l-12 42q35 15 65 40 29 25 49.5 57t32.5 70q11 37 11 77v74q19 6 35 24t16 42q0 27-19 47t-47 20v0zM918 366.5v-76q0-41-15-78-16-36-43-63t-63-43q-37-15-78-15h-417q-40 0-76 15-35 16-61.5 42.5t-41.5 63.5q-15 36-15 78v76h810zM57 438.5l3 1.5t3 0.5h895q4 0 6-2.5t2-6.5q0-3-2-5.5t-6-2.5h-895q-3 0-5.5 2.5t-2.5 5.5q0 2 0.5 3.5t1.5 3.5v0zM334 718.5q9 25 33.5 45.5t54.5 20.5 54-20.5 34-45.5h-176zM333 588.5v68h-54v-68h54zM440 588.5v68h-43v-68h43zM499 526.5v69h-43v-69h43zM392 526.5v69h-54v-69h54zM558 588.5v68h-42v-68h42z" />
<glyph unicode="&#xe94b;" glyph-name="uniE94B" d="M1024 296.5q0 7-4 12.5t-10 8.5l-3 1 2 2q7 11 11 24t4 27q0 39-28 66.5t-68 27.5h-488l2 4q7 9 11 20.5t4 23.5q0 31-22.5 53t-54.5 22h-116q-17 0-31-6.5t-25-17.5l-4-4v144q0 39-28 66.5t-68 27.5h-12q-40 0-68-27.5t-28-66.5v-506q0-9 6.5-15.5t16.5-6.5h25v-79h132v79h646v-79h132v79h43q9 0 16 6.5t7 15.5v98zM264 542.5h116q13 0 22-8.5t9-20.5q0-13-9-21.5t-22-8.5h-116q-13 0-22 8.5t-9 21.5q0 12 9 20.5t22 8.5zM46 704.5q0 20 14.5 34.5t35.5 14.5h12q21 0 35.5-14.5t14.5-34.5v-386h-112v386zM134 143.5h-40v29h40v-29zM913 143.5h-41v29h41v-29zM978 221.5h-932v52h932v-52zM928 322.5h-724v98h724q21 0 35.5-14.5t14.5-34.5q0-21-14.5-35t-35.5-14v0z" />
<glyph unicode="&#xe94c;" glyph-name="uniE94C" d="M904 630h-94v87q1 11 0.5 16.5t-1.5 8.5q-4 14-13.5 23.5t-24.5 14.5q18 7 29.5 23t11.5 35q0 24-25 61.5t-32 46.5l-9 14-10-14q-7-9-32-46.5t-25-61.5q0-19 11.5-35t28.5-23q-26-7-33-23.5t-7-26.5v-100h-99v87q0 11-0.5 16.5t-1.5 8.5q-4 14-13.5 23.5t-24.5 14.5q18 7 29.5 23t11.5 35q0 24-24.5 61.5t-31.5 46.5l-10 14-10-14q-7-9-31.5-46.5t-24.5-61.5q0-19 11-35t28-23q-26-7-32.5-23.5t-6.5-26.5v-100h-102v87q1 11 0.5 16.5t-1.5 8.5q-4 14-14 23.5t-24 14.5q18 7 29.5 23t11.5 35q0 24-25 61.5t-32 46.5l-9 14-10-14q-7-9-32-46.5t-25-61.5q0-19 11.5-35t28.5-23q-26-7-33-23.5t-7-26.5v-100h-96q-26 0-43.5-18t-17.5-43v-327q0-24 16-41.5t39-19.5v-151q0-39 27.5-66.5t66.5-27.5h614q38 0 65.5 27.5t27.5 66.5v349q22 4 36 20.5t14 39.5v130q0 25-17.5 43t-43.5 18v0zM704 838q0 11 13.5 35t28.5 45q14-21 27.5-45t13.5-35q0-16-12-27.5t-29-11.5q-18 0-30 11.5t-12 27.5zM704 730q0 6 5 17.5t37 11.5q11 0 23.5-4.5t16.5-18.5v-106h-82v100zM473 838q0 11 13.5 35t28.5 45q15-21 28-45t13-35q0-16-12-27.5t-29-11.5-29.5 11.5-12.5 27.5v0zM473 730q0 6 5.5 17.5t36.5 11.5q11 0 23.5-4.5t16.5-18.5v-106h-82v100zM241 838q0 11 13.5 35t28.5 45q14-21 27.5-45t13.5-35q0-16-12-27.5t-29-11.5q-18 0-30 11.5t-12 27.5zM241 730q0 6 5 17.5t37 11.5q11 0 23.5-4.5t16.5-18.5v-106h-82v100zM196 231h695v-124h-752v73q21 1 37.5 15.5t19.5 35.5v0zM891 255h-511q6 8 9.5 17.5t3.5 19.5v49q0 15 11 25.5t26 10.5h461v-122zM822-40h-614q-29 0-49 20.5t-20 49.5v53h752v-53q0-29-20.5-49.5t-48.5-20.5v0zM941 439q0-16-11-26.5t-26-10.5h-474q-26 0-43.5-18t-17.5-43v-49q0-15-11-26t-26-11h-17q-15 0-25.5 11t-10.5 26v73h-25v-73q0-10 3.5-19.5t9.5-17.5h-69v110q0 4 7.5 8.5t20.5 4.5q12 0 20-4.5t8-8.5h25q0 16-15.5 27t-37.5 11q-23 0-38-11t-15-27v-123q0-16-11-26.5t-26-10.5h-16q-15 0-26 10.5t-11 26.5v327q0 15 11 25.5t26 10.5h784q15 0 26-10.5t11-25.5v-130z" />
<glyph unicode="&#xe94d;" glyph-name="uniE94D" d="M393.045 438.111l-285 286q104 70 203 71 100 1 178-25.5t126-61.5q49-34 50-35l40 36q-13 16-75 56-62 41-153.5 66t-203.5 15q-111-10-223-97l-25-19 330-330 38 38zM776.045 638.111l-36-40q1-1 34-49 34-48 60-125.5t24-176.5-71-203l-285 286-39-39 330-330 19 24q86 112 96 224 11 111-13.5 202t-63.5 153q-40 61-55 74v0zM1016.045 944.111q-8 10-21 14t-28-1l-226-69q-13-4-21.5-12.5t-11.5-20.5q-3-11 1-22.5t13-21.5l58-57-459-453-98 39-223-224 162-17 16-163 224 221-39 108 456 450 54-55q7-7 16-11t18-4q15 0 26.5 9t16.5 25l71 223q4 12 2.5 22.5t-7.5 19.5v0zM225.045 65.111l-11 86-85 11 109 109 67-24 3-4 26-70-109-108zM902.045 709.111l-131 131 192 59z" />
<glyph unicode="&#xe94e;" glyph-name="uniE94E" d="M802 378.233q52 0 89.5 35t37.5 84-37.5 84-89.5 35q-18 0-34.5-4t-31.5-13l-187 142 3 3q10 8 14.5 19t4.5 24q0 12-4.5 23t-14.5 20l-8 7 1 1q4-4 9-6t11-2 11 2 9 5l35 31q8 8 8.5 19t-7.5 20l-45 44q-8 8-20.5 8.5t-20.5-6.5l-35-31q-4-4-6.5-9t-2.5-10q0-6 2-11t6-9l6-6-2-1-23 21q-9 9-21 13.5t-25 4.5q-12 0-24-4.5t-21-13.5l-37-34q-13 2-25.5 3.5t-25.5 1.5q-46 0-88-16.5t-75-47.5q-8-8-16-16.5t-14-17.5l-13-19 85-80q-8-11-12.5-23.5t-4.5-25.5q0-35 26.5-59.5t63.5-24.5q14 0 27.5 4t24.5 12l103-97 20 12q10 6 19 13.5t18 15.5q39 36 56 86.5t8 101.5l165-125q-9-14-14-30.5t-5-33.5q0-26 11-48.5t32-39.5l-208-297h-202q-12 0-22.5-10t-10.5-21v-32h-78q-12 0-20.5-9.5t-8.5-20.5v-56q0-11 8.5-19t20.5-8h611q12 0 21 8t9 19v56q0 11-9 20.5t-21 9.5h-77v32q0 11-11 21t-23 10h-118l190 271q8-2 16.5-3.5t16.5-1.5v0zM308-0.767h476v-13h-562v13h86zM329 36.233v25h348v-25h-348zM726 497.233q0 29 22 50t54 21q31 0 53.5-21t22.5-50q0-30-22.5-50.5t-53.5-20.5q-32 0-54 20.5t-22 50.5v0zM253 586.233q-16 0-27 10.5t-11 25.5q0 5 1.5 10t4.5 10l53-50q-5-3-10-4.5t-11-1.5v0zM225 697.233l-64 60 13 13q26 24 58.5 37t68.5 13q13 0 26-2t25-5l5-1q10-3 19.5-7.5t18.5-9.5h0.5t0.5-1q2-1 3.5-2t3.5-2l1-0.5t2-0.5l2-2t3-2q0-1 1-1.5t2-0.5q1-1 2.5-2t2.5-2q0-1 1-1.5l1-0.5q2-2 4-3.5t4-3.5v0 0l12-12q0-1 0.5-1.5l1.5-1.5q2-3 4-5.5t4-5.5q1 0 1-1t1-1l8-12v-1q26-48 18-102.5t-51-94.5q-3-4-6.5-7t-7.5-5l-189 177zM481 778.233l-6.5 6.5t-2.5 3.5q-1 0-1.5 1t-1.5 2q-2 2-4.5 4t-4.5 5v0 0 0 0q-3 3-6 5.5t-6 5.5q-1 0-1.5 0.5l-1.5 1.5q-3 2-6 4.5t-6 4.5q-1 0-1.5 0.5t-1.5 0.5q-7 5-14.5 9t-15.5 8l25 23q4 4 9.5 4t9.5-4l72-67q2-2 3-4.5t1-4.5q0-3-1-5.5t-3-3.5l-21-21q0 1-0.5 1.5l-1.5 1.5q-1 2-2.5 4t-2.5 4q-1 1-1.5 2t-1.5 2-2 2.5-2 3.5v0zM537 927.233l56-56-10-8-56 56z" />
<glyph unicode="&#xe94f;" glyph-name="uniE94F" d="M930 853.5h-133v99h-52v-99h-205v99h-52v-99h-205v99h-51v-99h-138q-39 0-66.5-27.5t-27.5-66.5v-722q0-39 27.5-66.5t66.5-27.5h836q39 0 66.5 27.5t27.5 66.5v722q0 39-27.5 66.5t-66.5 27.5v0zM973 37.5q0-18-12.5-30.5t-30.5-12.5h-836q-18 0-30.5 12.5t-12.5 30.5v722q0 18 12.5 30.5t30.5 12.5h138v-92h51v92h205v-92h52v92h205v-92h52v92h133q18 0 30.5-12.5t12.5-30.5v-722zM225 582.5h133v-101h-133v101zM446 582.5h132v-101h-132v101zM671 582.5h133v-101h-133v101zM225 413.5h133v-101h-133v101zM446 413.5h132v-101h-132v101zM671 413.5h133v-101h-133v101zM225 259.5h133v-101h-133v101zM446 259.5h132v-101h-132v101zM671 259.5h133v-101h-133v101z" />
<glyph unicode="&#xe950;" glyph-name="uniE950" d="M932 770.5h-197l-65 131h-316l-65-131h-197q-41 0-66.5-24.5t-25.5-65.5v-594q0-41 19-66.5t60-25.5h866q41 0 60 25.5t19 66.5v594q0 41-25.5 65.5t-66.5 24.5v0zM394 862.5h236l40-92h-316l40 92zM971 86.5q0-15-5.5-27t-20.5-12h-866q-15 0-20.5 12t-5.5 27v592q0 15 12 27t27 12h853q15 0 20.5-12t5.5-27v-592zM512 635.5q-50 0-94-19t-77-52.5-52-77.5q-19-45-19-95 0-51 19-95 19-45 52-78t77-53q44-19 94-19t94 19q44 20 77 53t52 78q19 44 19 95 0 50-19 95-19 44-52 77.5t-77 52.5-94 19v0zM512 209.5q-74 0-127 53.5t-53 128.5 53 128.5 127 53.5 127-53.5 53-128.5-53-128.5-127-53.5zM517 533.5l-3.5 0.5t-9.5 0.5q-13 0-36.5-6t-49.5-29q-55-46-53-89t3-45q3-10 11-16t19-6h4t5 1l7 2 1 2q8 5 12 14.5t2 19.5q0 1 2.5 22t33.5 47q17 14 27.5 17.5t14.5 3.5h1.5t-0.5 0q2-1 4-1h4q11 0 19 7.5t9 18.5q1 13-7 23t-20 13v0z" />
<glyph unicode="&#xe951;" glyph-name="uniE951" d="M907 762h-148q-6 44-30 80t-57.5 62.5-73.5 40.5q-40 15-78 15h-16q-38 0-78-15-40-14-73.5-40.5t-57.5-62.5-30-80h-148q-47 0-63.5-17.5t-16.5-65.5v-626q0-48 33.5-82.5t80.5-34.5h722q47 0 80.5 34.5t33.5 82.5v626q0 48-16.5 65.5t-63.5 17.5v0zM329 762q12 58 67 96.5t108 38.5h16q54 0 108.5-38.5t66.5-96.5h-366zM98 679v11.5t1 7.5q2 0 6.5 0.5t12.5 0.5h145v-168h63v168h372v-168h63v168h145q8 0 12.5-0.5t6.5-0.5q1-3 1-7.5v-637.5q0-22-15.5-38t-37.5-16h-722q-22 0-37.5 16t-15.5 38v626z" />
<glyph unicode="&#xe952;" glyph-name="uniE952" d="M512-64q-106 0-199 40t-162.5 109.5-110.5 163.5q-40 93-40 199t40 199q41 93 110.5 162.5t162.5 109.5q93 41 199 41t199-41q93-40 162.5-109.5t110.5-162.5q40-93 40-199t-40-199q-41-94-110.5-163.5t-162.5-109.5-199-40v0zM512 909q-95 0-179-37-84-36-146.5-98.5t-99.5-146.5q-36-84-36-179 0-96 36-180 37-83 99.5-146t146.5-99 179-36 179 36 146.5 99 99.5 146q36 84 36 180 0 95-36 179-37 84-99.5 146.5t-146.5 98.5q-84 37-179 37zM705 505q24 0 41-17t17-40q0-24-17-41t-41-17q-23 0-40 17t-17 41q0 23 17 40t40 17v0zM512 505q24 0 40.5-17t16.5-40q0-24-16.5-41t-40.5-17-40.5 17-16.5 41q0 23 16.5 40t40.5 17v0zM318 505q24 0 41-17t17-40q0-24-17-41t-41-17q-23 0-40 17t-17 41q0 23 17 40t40 17v0z" />
<glyph unicode="&#xe953;" glyph-name="uniE953" d="M650 716h-532v-52h532v52zM118 558h278v52h-278v-52zM1024 565l-13 23h-1q-8 10-19.5 16t-24.5 6h-197v140q0 30-20.5 50.5t-49.5 20.5h-629q-29 0-49.5-20.5t-20.5-50.5v-396q0-29 20.5-49.5t49.5-20.5h63v-161l188 161h78v-29q0-23 16.5-39.5t39.5-16.5h299l146-124v124h66q23 0 39.5 16.5t16.5 39.5v299q0 3-0.5 6t-0.5 5h3zM400 565q-1-2-1-5v-224h-98l-116-99v99h-115q-7 0-12.5 5.5t-5.5 12.5v396q0 8 5.5 13.5t12.5 5.5h629q7 0 12.5-5.5t5.5-13.5v-140h-262q-7 0-13.5-1.5t-13.5-5.5q-6-3-11.5-8t-9.5-11l-4-8-5-11h2zM855 244v-72l-84 72h-316q-5 0-8 3.5t-3 7.5v299q0 5 3 8t8 3h511q4 0 7.5-3t3.5-8v-299q0-4-3.5-7.5t-7.5-3.5h-111zM472 294h423v45h-423v-45zM702 419h-230v-45h230v45z" />
<glyph unicode="&#xe954;" glyph-name="uniE954" d="M771 796.5h-657v-40h657v40zM905 796.5h-74v-40h74v40zM965 872.5h-906q-24 0-41.5-17t-17.5-42v-569q0-26 19-43t48-17h348v-45h-58l-80-80v-36h470v36l-80 80h-58v45h364q18 0 34.5 17.5t16.5 42.5v569q0 25-17 42t-42 17zM459 139.5v45h106v-45h-106zM348 67.5l27 27h274l27-27h-328zM44 284.5h582v44h-582v485q0 6 4.5 10.5t10.5 4.5h906q6 0 10.5-4.5t4.5-10.5v-485h-52v-44h52v-40q0-6-3-10t-5-5h-905q-11 0-17 4t-6 11v40zM852 265.5h44v40h-44v-40zM766 265.5h45v40h-45v-40zM683 265.5h45v40h-45v-40zM771 693.5q-34 0-57.5-24t-23.5-58 23.5-58 57.5-24q33 0 56.5 24t23.5 58-23.5 58-56.5 24zM771 558.5q-22 0-37 15.5t-15 37.5 15 37.5 37 15.5q21 0 36-15.5t15-37.5-15-37.5-36-15.5zM826 522.5h-107l-4-1q-57-23-68-30.5t-11-15.5v-102h269v102q0 8-11 15.5t-68 31.5zM819 493.5q18-7 34.5-14t23.5-11v-66h-213v66q8 4 24 11t35 14h96zM398 654.5q0-8-6-14t-14-6h-244q-8 0-14 6t-6 14v0q0 9 6 14.5t14 5.5h244q8 0 14-5.5t6-14.5v0zM398 544.5q0-9-6-14.5t-14-5.5h-244q-8 0-14 5.5t-6 14.5v0q0 8 6 13.5t14 5.5h244q8 0 14-5.5t6-13.5v0zM237 448.5q0-9-6-14.5t-14-5.5h-83q-8 0-14 5.5t-6 14.5v0q0 8 6 14t14 6h83q8 0 14-6t6-14v0 0z" />
<glyph unicode="&#xe955;" glyph-name="uniE955" d="M916.062 626h-9q-20 63-58 116t-90 91.5-115 60.5-132 22-130-21q-62-21-113.5-58.5t-89.5-88.5q-39-51-60-112v0q-4 1-8 1h-8q-45-2-75-43t-28-97q2-55 34-93t76-38h8q25-74 75.5-134.5t121.5-98.5v-105q0-20 13.5-34t32.5-14h39q18 0 30.5 14t12.5 34v61q17-3 34-4t35-1q16 0 32.5 1t32.5 4v-61q0-20 13.5-34t32.5-14h39q17 0 30 14t13 34v103q70 37 120.5 95.5t76.5 129.5q3 0 6.5-0.5t7.5-0.5q45 0 76.5 40t31.5 96-31.5 95.5-76.5 39.5v0zM22.062 498q-2 47 22 81t60 36q2 0 4-0.5t4-0.5q-8-27-12-56t-4-58 4-57 11-55q-35 0-61 31.5t-28 78.5v0zM695.062 325q23 21 37 57t14 79q0 66-31 113t-74 47-74-47-31-113q0-44 15-81t39-58q-6-3-9.5-8t-3.5-12v-93q-33-8-67-7.5t-67 7.5v103q0 1-0.5 3.5t-2.5 4.5q13 9 20 22.5t7 29.5v136h-1l-11 127h-14v-127h-54v127h-15v-127h-60v127h-15l-10-127h-1v-136q0-18 9.5-33t25.5-23q-3-3-4.5-6.5t-1.5-7.5v-27q-48 43-74.5 101.5t-26.5 123.5q0 61 23 116 24 54 64.5 94.5t94.5 63.5q54 24 116 24 61 0 115-24 55-23 95-63.5t64-94.5q23-55 23-116 0-66-27.5-125.5t-76.5-101.5v39q0 2-1.5 6t-8.5 7v0zM662.062 329v-1q-5-2-10.5-3t-10.5-1q-34 0-58.5 40t-24.5 97 24.5 97.5 58.5 40.5 58.5-40.5 24.5-97.5q0-47-17.5-83.5t-43.5-48.5h-1zM308.062 372v114h137v-114q0-18-13-30.5t-32-12.5h-45q-20 0-33.5 12.5t-13.5 30.5v0zM421.062 28q0-11-6-18.5t-15-7.5h-39q-10 0-16.5 7.5t-6.5 18.5l-1 274q1 1 5.5 3t12.5 2h45q7 0 12.5-0.5t8.5-1.5v-277zM443.062 112v75q17-4 34-6t35-2q16 0 32.5 2t32.5 5v-75q-33-5-67-5t-67 6v0zM683.062 28q0-11-6.5-18.5t-14.5-7.5h-39q-10 0-17 7.5t-7 18.5v274q1 1 5 3t11 2q6-2 12.5-3.5t13.5-1.5 13.5 1.5 12.5 3.5q5 0 9-0.5t7-1.5v-277zM705.062 157v87q59 46 92.5 113.5t33.5 142.5q0 66-25 124-25 59-68.5 102.5t-101.5 68.5-124 25q-67 0-125-25t-101.5-68.5-68.5-102.5q-25-58-25-124 0-74 32.5-141t90.5-112v-89q-45 27-82 63-36 37-61.5 81t-39.5 94q-14 51-14 104 0 81 31 153t84.5 125.5 125.5 84.5q71 31 153 31 81 0 153-31 71-31 124.5-84.5t84.5-125.5 31-153q0-54-14-105-14-50-40-94.5t-63-80.5q-37-37-83-63v0zM916.062 377q-2 0-3.5 0.5t-3.5 0.5q9 29 13.5 59.5t4.5 62.5q0 27-3.5 53t-9.5 51h2q36 0 61-33t25-80-25-80.5-61-33.5v0z" />
<glyph unicode="&#xe956;" glyph-name="uniE956" d="M939 901.5h-854q-35 0-60-25t-25-60v-521q0-36 25-61t60-25h257q4-15 6-38t-10-43q-11-18-31-40t-33-35h-97q-15 0-26-8.5t-11-20.5q0-13 11-21.5t26-8.5h670q15 0 26 8.5t11 21.5q0 12-11 20.5t-26 8.5h-97q-12 13-32.5 35t-31.5 40q-12 20-10 43t6 38h257q35 0 60 25t25 61v521q0 35-25 60t-60 25v0zM85 849.5h854q14 0 23.5-9.5t9.5-23.5v-399h-920v399q0 14 9.5 23.5t23.5 9.5v0zM642 101.5q7-12 16.5-24t20.5-24h-334q11 12 20.5 24t16.5 24q17 27 17.5 56.5t-4.5 51.5h234q-5-22-4.5-51.5t17.5-56.5v0zM939 261.5h-854q-14 0-23.5 10t-9.5 24v84h920v-84q0-14-9.5-24t-23.5-10v0zM512 348.5q-15 0-26-11t-11-27q0-15 11-26t26-11 26 11 11 26q0 16-11 27t-26 11zM512 303.5q-3 0-5.5 2t-2.5 5q0 4 2.5 6t5.5 2 5.5-2 2.5-6q0-3-2.5-5t-5.5-2z" />
<glyph unicode="&#xe957;" glyph-name="uniE957" d="M526 317l94 96 23-23-118-118-13-11-11 10-120 119 23 23 94-96v245h28v-245zM960 415q64-56 64-133 0-75-52.5-127.5t-127.5-52.5h-664q-75 0-127.5 52.5t-52.5 127.5q0 60 36.5 107t94.5 62l10 2 3 10q13 39 42 63.5t70 31.5l14 3 2 14q11 92 79 156 67 63 161 63 77 0 137-43 61-43 90-113l5-11 12-1q80-3 137-60t61-137v-8zM844 131q64 0 108 44t44 107q0 76-61 121l-6 4v8q0 76-54 130.5t-131 54.5h-19l-4 11q-20 69-77 112t-132 43q-91 0-154.5-63.5t-63.5-154.5v-14h-14q-42 0-74-26t-42-67l-2-10-9-1q-53-7-89-49t-36-99q0-64 44-107.5t108-43.5h664z" />
<glyph unicode="&#xe958;" glyph-name="uniE958" d="M929 821h-834q-39 0-67-31t-28-74v-536q0-44 28-74.5t67-30.5h834q39 0 67 30.5t28 74.5v536q0 43-28 74t-67 31zM972 267l-225 186 225 183v-369zM95 764h834q18 0 30.5-14t12.5-34v-33l-405-327q-46-35-76.5-19t-31.5 17l-407 329v33q0 20 12.5 34t30.5 14v0zM277 453l-225-186v369zM929 132h-834q-18 0-30.5 14t-12.5 34v39l255 211 129-105q10-10 29.5-19.5t44.5-9.5q17 0 36.5 6.5t40.5 22.5l130 105 255-211v-39q0-20-12.5-34t-30.5-14v0z" />
<glyph unicode="&#xe959;" glyph-name="uniE959" d="M943-64h-862q-34 0-57.5 23.5t-23.5 57.5v861q0 34 23.5 58t57.5 24h862q34 0 57.5-24t23.5-58v-861q0-34-23.5-57.5t-57.5-23.5v0zM81 906q-11 0-19-8t-8-20v-861q0-11 8-19t19-8h862q11 0 19 8t8 19v861q0 12-8 20t-19 8h-862zM210 689h604v-54h-604v54zM210 475h604v-54h-604v54zM210 266h604v-54h-604v54z" />
<glyph unicode="&#xe95a;" glyph-name="uniE95A" d="M965 604h-27v356h-852v-356h-27q-18 0-31-13t-13-31v-371q0-18 13-31t31-13h27v-209h195v106h462v-106h195v209h27q18 0 31 13t13 31v371q0 18-13 31t-31 13v0zM228 95v-106h-89v156h746v-156h-89v106h-568zM885 906v-302h-746v302h746zM956 551v-352h-888v352h888zM315 762h386v-154h54v163q0 19-13 32t-32 13h-404q-19 0-32-13t-13-32v-163h54v154z" />
<glyph unicode="&#xe95b;" glyph-name="uniE95B" d="M0 832v-86h1024v86h-1024zM0 490v-85h1024v85h-1024zM0 149v-85h1024v85h-1024z" />
<glyph unicode="&#xe95c;" glyph-name="uniE95C" d="M1024 563l-363 38-149 334-149-334-363-38 271-245-75-357 316 182 316-182-75 357z" />
<glyph unicode="&#xe95d;" glyph-name="uniE95D" horiz-adv-x="1152" d="M1139 80q28-48 0-96t-83-48h-960q-55 0-83 48t0 96l480 832q28 48 83.5 48t82.5-48l480-832zM576 252q-38 0-65-27t-27-65 27-65 65-27 65 27 27 65-27 65-65 27zM489 582l14-272q1-9 8-15.5t16-6.5h98q9 0 16 6.5t8 15.5l14 272q1 11-6 18.5t-18 7.5h-126q-11 0-18-7.5t-6-18.5v0z" />
<glyph unicode="&#xe95e;" glyph-name="uniE95E" d="M512 960q-106 0-199-41-94-40-163.5-109.5t-109.5-162.5-40-199 40-200q40-93 109.5-162.5t163.5-109.5q93-40 199-40t199 40q94 40 163.5 109.5t109.5 162.5q40 94 40 200t-40 199-109.5 162.5-163.5 109.5q-93 41-199 41zM512 35q-86 0-161 32-75 33-131 89t-88 131q-33 75-33 161 0 85 33 160 32 76 88 132t131 88q75 33 161 33t161-33q75-32 131-88t88-132q33-75 33-160 0-86-33-161-32-75-88-131t-131-89q-75-32-161-32zM722 576l-128-128 128-129q7-7 7-17.5t-7-17.5l-46-47q-8-7-18-7t-18 7l-128 129-128-129q-8-7-18-7t-18 7l-46 47q-7 7-7 17.5t7 17.5l128 129-128 128q-7 7-7 17.5t7 17.5l46 47q8 7 18 7t18-7l128-129 128 129q8 7 18 7t18-7l46-47q7-7 7-17.5t-7-17.5z" />
<glyph unicode="&#xe95f;" glyph-name="uniE95F" d="M401 960l-6-32-23-117q-28-11-53.5-26.5t-48.5-34.5l-115 40-31 10-16-29-78-135-16-28 23-21 89-78q-3-15-5.5-30t-2.5-31 2.5-31.5 5.5-30.5l-89-77-23-21 16-29 78-135 16-28 31 10 115 39q23-19 48.5-34t53.5-26l23-117 6-32h222l6 32 23 117q28 11 53.5 26t48.5 34l115-39 31-10 16 28 78 135 16 29-23 21-89 77q3 15 5.5 30.5t2.5 31.5-2.5 31-5.5 30l89 78 23 21-16 28-78 135-16 29-31-10-115-40q-23 19-48.5 34.5t-53.5 26.5l-23 117-6 32h-222zM465 881h94l19-102 5-24 23-7q33-11 63-28.5t56-40.5l17-16 22 7 100 35 47-80-79-70-18-15 6-23q3-17 5-34.5t2-34.5q0-18-2-35t-5-34l-5-24 17-14 79-71-47-80-100 35-22 7-17-16q-26-23-56-40.5t-63-28.5l-23-7-5-23-19-103h-94l-19 103-5 23-23 7q-33 11-63 28.5t-56 40.5l-17 16-22-7-100-35-47 80 79 71 18 14-6 24q-3 17-5 34t-2 35q0 17 2 34.5t5 34.5l6 23-18 15-79 70 47 80 100-35 22-7 17 16q26 23 56 40.5t63 28.5l23 7 5 24zM512 645q-41 0-76-16-36-15-63-42t-42-63q-16-36-16-76 0-41 16-77 15-36 42-62.5t63-42.5q35-15 76-15t76 15q36 16 63 42.5t42 62.5q16 36 16 77 0 40-16 76-15 36-42 63t-63 42q-35 16-76 16zM512 566q49 0 83.5-34.5t34.5-83.5q0-50-34.5-84t-83.5-34-83.5 34-34.5 84q0 49 34.5 83.5t83.5 34.5z" />
<glyph unicode="&#xe960;" glyph-name="uniE960" d="M512 935l-32-74-116-260-284-30-80-9 271-244-59-279-17-78 70 40 247 143 247-143 70-40-17 78-59 279 271 244-80 9-284 30-116 260zM512 759l91-206 9-19 20-2 225-24-168-150-15-15 4-20 47-219-195 111-18 11-18-11-195-111 47 219 4 20-15 15-168 150 245 26 9 19z" />
<glyph unicode="&#xe961;" glyph-name="uniE961" d="M512-64q-212 0-362 149.5t-150 362 150 362.5 362 150 362-150 150-362-150-362-362-150zM512 881q-180 0-306.5-126.5t-126.5-306.5 126.5-306.5 306.5-126.5 306.5 126.5 126.5 306.5-127 306q-127 127-306 127zM468 716h89v-89h-89v89zM468 537h89v-357h-89v357z" />
<glyph unicode="&#xe962;" glyph-name="uniE962" d="M1022 235.5l-66 434q-8 47-47.5 81t-88.5 34h-616q-49 0-89-34t-47-81l-66-434q-4-27 2-51t21-41q13-16 31-24t38-8h153q38 0 74.5 29t51.5 72q9 26 38 45.5t61 19.5h80q32 0 61-19.5t38-45.5q15-43 52.5-72t77.5-29h153q19 0 35.5 8t29.5 22q15 18 21 42.5t2 51.5v0zM247 163.5h-153q-9 0-16 3.5t-13 10.5q-8 9-11 22t-1 28l67 434q4 29 29 50t55 21h616q30 0 55-21t29-50l67-434q2-16-1-29.5t-11-22.5q-3-4-9.5-8t-15.5-4h-153q-23 0-47 19.5t-33 45.5q-15 43-58 72t-91 29h-80q-48 0-91-29t-58-72q-9-26-31.5-45.5t-44.5-19.5v0zM362 452.5q12 0 20 2t12 7q8 7 9.5 20.5t1.5 18.5-1.5 18.5-9.5 21.5q-4 4-12 6t-20 2q-11 0-23-1.5l-20-2.5q3 18 4 41.5t-8 33.5q-8 8-21.5 9.5t-18.5 1.5-18.5-1.5-21.5-9.5q-10-10-9-33.5t5-41.5l-20 2.5t-24 1.5-19.5-2-12.5-6q-7-8-9-21.5t-2-18.5 2-18.5 9-20.5q5-5 12.5-7t19.5-2 24 1.5 20 3.5q-4-18-5-41.5t9-33.5q8-8 21.5-9.5t18.5-1.5 18.5 1.5 21.5 9.5q9 10 8 33.5t-4 41.5q8-2 20-3.5t23-1.5v0zM744 544.5q18 0 31 12.5t13 30.5-13 30.5-31 12.5-30.5-12.5-12.5-30.5 12.5-30.5 30.5-12.5zM744 482.5q-18 0-30.5-12.5t-12.5-30.5 12.5-30.5 30.5-12.5 31 12.5 13 30.5-13 30.5-31 12.5v0zM819 470.5q18 0 30.5 12.5t12.5 30.5-12.5 30.5-30.5 12.5-31-12.5-13-30.5 13-30.5 31-12.5zM670 470.5q18 0 30.5 12.5t12.5 30.5-12.5 30.5-30.5 12.5-31-12.5-13-30.5 13-30.5 31-12.5z" />
<glyph unicode="&#xe963;" glyph-name="uniE963" d="M984 672.5h-340l111 111q10 10 15.5 23.5t5.5 27.5q0 15-5.5 28.5t-15.5 23.5l-24 23q-10 10-23.5 15.5t-27.5 5.5q-15 0-28.5-5.5t-23.5-15.5l-117-116q0-1-0.5-1.5l-1.5-1.5-1.5 1.5t-0.5 1.5l-117 116q-10 10-23.5 15.5t-28.5 5.5q-14 0-27.5-5.5t-23.5-15.5l-24-23q-10-10-15.5-23.5t-5.5-28.5q0-14 5.5-27.5t15.5-23.5l111-111h-334q-16 0-28-11.5t-12-28.5v-118q0-16 12-28t28-12h51v-469q0-17 12-28.5t28-11.5h756q16 0 28 11.5t12 28.5v469h57q16 0 28 12t12 28v118q0 17-12 28.5t-28 11.5v0zM584 625.5v-613h-148v613h148zM545 760.5l116 116q4 3 8.5 5t10.5 2q5 0 9.5-2t8.5-5l23-23q4-4 6-8.5t2-10.5q0-5-2-9.5t-6-8.5l-116-116q-7-7-18.5-7t-18.5 7l-23 23q-8 8-8 18.5t8 18.5v0zM489 672.5l18 18q0 1 0.5 1.5t1.5 0.5 1.5-0.5 0.5-1.5l18-18h-40zM413 700.5l-116 116q-8 8-8 18.5t8 18.5l23 23q4 3 8.5 5t9.5 2 10-2 8-5l117-116q4-4 5.5-8.5t1.5-10.5q0-5-1.5-9.5t-5.5-8.5l-23-23q-7-7-18.5-7t-18.5 7v0zM977 625.5v-103h-346v103h346zM879 474.5v-462h-248v462h248zM389 474.5v-462h-251v462h251zM389 625.5v-103h-342v103h342z" />
<glyph unicode="&#xe964;" glyph-name="uniE964" d="M0 960l269-1v-269h-269v270zM377 959h270v-269h-270v269zM755 959l269 1v-270h-269v269zM0 582h269v-269h-269v269zM377 582h270v-269h-270v269zM755 582h269v-269h-269v269zM0 205h269v-269h-269v269zM377 205h270v-269h-270v269zM755 205h269v-269h-269v269z" />
<glyph unicode="&#xe965;" glyph-name="uniE965" d="M1007 280q0-91-59.5-160t-148.5-83q-32-29-80-49-40-16-81-27-23-26-56-26h-143q-32 0-54 22t-22 53.5 22 53.5 54 22h143q31 0 53-21.5t22-52.5q24 8 46 17 19 7 38 19-2 3-2 7v450q0 9 6.5 15t15.5 6q92 0 162-61v42q0 107-51.5 199t-141.5 149q-100 63-218 63-111 0-206-55t-150-150-55-206v-42q70 61 162 61 9 0 15.5-6t6.5-15v-450q0-9-6.5-15t-15.5-6q-102 0-174 72t-72 174q0 74 41 136v91q0 92 36 176t97 145 145 97 176 36q131 0 241-69 100-63 156.5-165t56.5-220v-91q41-62 41-136zM242 482q-77-8-129.5-66t-52.5-136 52.5-136 129.5-66v404zM582-22q13 0 22.5 9.5t9.5 23-9.5 23-22.5 9.5h-143q-14 0-23.5-9.5t-9.5-23 9.5-23 23.5-9.5h143zM782 78q77 8 129.5 66t52.5 136-52.5 136-129.5 66v-404z" />
<glyph unicode="&#xe966;" glyph-name="uniE966" horiz-adv-x="1028" d="M443 566l-93-148h-407v20h397l113 179 54-267 64 88h245v-20h-236l-83-114zM871 421v19h86v-19h-86zM1019 421v19h66v-19h-66zM504 94q135 135 283 278h37q-162-156-316-310l-9-9-9 9q-148 151-308 310h36q142-141 276-278l5-5zM896 498q21 44 22 93 1 93-65 159-68 68-155 68-86 0-153-66l-46-45-46 45q-67 66-149 66t-150-68q-66-66-65-159 1-49 22-93h-28q-19 44-19 93-1 103 72 177 75 75 168 75 92 0 167-72l28-28 28 28q74 72 171 72 98 0 173-75 73-74 72-177 0-49-19-93h-28z" />
<glyph unicode="&#xe967;" glyph-name="uniE967" d="M1012 497.5l-468 410q-9 8-17 12t-15 4-15-4-17-12l-468-410q-12-11-11.5-21t1.5-14q1-3 7.5-11.5t23.5-8.5h52v-429q0-17 11.5-29t28.5-12h238q17 0 29 12t12 29v232h217v-232q0-17 11.5-29t28.5-12h238q17 0 29 12t12 29v429h51q17 0 23.5 8.5t7.5 11.5 1.5 13.5-11.5 21.5v0zM631 297.5h-238q-17 0-29-12t-12-29v-232h-216v429q0 17-12 29t-29 12h-8l425 373 426-373h-9q-17 0-29-12t-12-29v-429h-216v232q0 17-12 29t-29 12v0z" />
<glyph unicode="&#xe968;" glyph-name="uniE968" d="M448 698q-126-20-220-106l-221 317q-12 16-3 33t29 17h221q18 0 32-8t24-24zM512 640q96 0 177-47t127.5-128 46.5-177-46.5-176.5-127.5-127.5-177-47-177 47-127.5 127.5-46.5 176.5 46.5 177 127.5 128 177 47zM698 326q10 10 5 23t-19 15l-104 16-48 94q-6 14-20 14t-20-14l-48-94-104-16q-14-2-19-15t5-23l76-74-18-104q-2-13 10-22t24-3l94 49 94-49q12-6 24 2.5t10 22.5l-18 104zM991 959q20 0 29-17t-3-33l-221-317q-94 86-220 106l138 229q10 16 24 24t32 8h221z" />
<glyph unicode="&#xe969;" glyph-name="uniE969" d="M905 770l-553-553-233 233-46-46 256-256 23-22 23 22 576 576z" />
<glyph unicode="&#xe96a;" glyph-name="uniE96A" d="M0 448q0 10 8 18l190 194q8 7 18.5 7t18-7.5 7.5-18-7-18.5l-147-149h910q11 0 18.5-7.5t7.5-18.5-7.5-18.5-18.5-7.5h-910l147-149q7-8 7-18.5t-7.5-18-18-7.5-18.5 7l-190 194q-8 7-8 18z" />
<glyph unicode="&#xe96b;" glyph-name="uniE96B" horiz-adv-x="1152" d="M576-64q-10 0-18 8l-194 190q-7 8-7 18.5t7.5 18 18 7.5 18.5-7l149-147v910q0 11 7.5 18.5t18.5 7.5 18.5-7.5 7.5-18.5v-910l149 147q8 7 18.5 7t18-7.5 7.5-18-7-18.5l-194-190q-7-8-18-8z" />
<glyph unicode="&#xe96c;" glyph-name="uniE96C" d="M1024 448q0-10-7-18l-191-194q-8-7-18.5-7t-18 7.5-7.5 18 7 18.5l147 149h-910q-11 0-18.5 7.5t-7.5 18.5 7.5 18.5 18.5 7.5h910l-147 149q-7 8-7 18.5t7.5 18 18 7.5 18.5-7l190-194q8-7 8-18z" />
<glyph unicode="&#xe96d;" glyph-name="uniE96D" d="M512 960q10 0 18-7l194-191q7-8 7-18.5t-7.5-18-18-7.5-18.5 7l-149 147v-910q0-11-7.5-18.5t-18.5-7.5-18.5 7.5-7.5 18.5v910l-149-147q-8-7-18.5-7t-18 7.5-7.5 18 7 18.5l194 190q7 8 18 8z" />
<glyph unicode="&#xe96e;" glyph-name="uniE96E" horiz-adv-x="1152" d="M1128 726q-10 37-37.5 64.5t-64.5 37.5q-34 10-108 14-75 5-151 7.5t-133 2.5l-58 1-58-1q-57 0-133-2.5t-151-7.5q-74-4-108-14-37-10-64.5-37.5t-37.5-64.5q-9-34-14-82t-7-91.5-3-74.5v-62q1-31 3-75t7-91q5-48 14-82 10-38 37.5-64.5t64.5-36.5q34-9 108-14 75-5 151-7.5t133-2.5h116q57 0 133 2.5t151 7.5q74 5 108 14 37 10 64.5 36.5t37.5 64.5q9 34 14 82 5 47 7 91t3 75v62q-1 31-3 74.5t-7 91.5-14 82v0zM458 276v342l301-171-301-171z" />
<glyph unicode="&#xe96f;" glyph-name="uniE96F" d="M231 775l-46-46 281-281-281-281 46-46 281 281 281-281 46 46-281 281 281 281-46 46-281-281z" />
<glyph unicode="&#xe970;" glyph-name="uniE970" d="M557.021 960q-76 0-144-24t-124-66-98-100q-42-59-64-127-14-5-27-14t-26-23q-30-33-47-83-17-49-10-111.5t43-136.5 111-156l50-48q40-33 80-58 40-26 79-43t76-26q38-8 73-8 53 0 98 18.5t77 52.5q9 10 15.5 19.5t10.5 19.5q4 8 6 16t3 16l40 20q51 30 94 72 42 43 72.5 94.5t46.5 110.5q17 60 17 124 0 95-36 179-35 84-96.5 146.5t-143.5 98.5q-83 37-176 37v0zM689.021 86q0-7-2.5-14.5t-8.5-15.5q-2-3-5-6.5t-6-7.5q-14-16-47.5-35.5t-90.5-19.5q-62 0-132.5 31.5t-142.5 91.5l-47 45q-66 71-99 135-32 64-40 117t5 94q12 41 37 69h0.5t0.5 1q7 8 14.5 13.5t13.5 8.5q4 1 7.5 2t6.5 1 6-0.5 7-1.5q7-3 15-9.5t17-15.5q2-3 5-6t5-6q3-3 5.5-6.5t5.5-6.5q8-10 15.5-21t15.5-22l2-3q22-31 5-69t-21-45q-1 0-1-0.5v-0.5q-1-1-3-5t-4-9q-2-4-3.5-9t-2.5-10q-3-11-2.5-24t7.5-26q7-12 28-38t47-52q26-23 52.5-43t39.5-25q6-3 12.5-4.5t13.5-1.5q9 0 17 2t15 5q5 2 9.5 4t7.5 4q2 2 3.5 3t2.5 2l2 1.5t5 3.5q10 7 30.5 17.5t43.5 10.5q8 0 15.5-2t14.5-6l3-3q8-4 16-9t15-10q4-3 7.5-5.5t7.5-4.5q3-3 6.5-5t6.5-5q10-7 18-14.5t13-15.5q4-5 6.5-10t3.5-11v-2zM293.021 528l-2 3q-15 21-29 40t-29 35q16 52 48 96 31 44 73.5 76t93.5 50q52 18 109 18 46 0 89-12.5t81-34.5q33-20 60.5-46t49.5-57q28-42 44-92t16-105-16-105-44.5-91.5-67.5-74.5q-40-32-87-51-15 12-31.5 23t-34.5 22l-3 2q-13 8-27.5 12t-29.5 4q-44 0-77.5-21.5t-34.5-22.5q-3-2-13-6.5t-17-1.5q-7 4-29.5 20t-48.5 39q-25 26-43 48t-21 29q-4 7-1 16.5t5 13.5q3 3 29.5 61t-12.5 113v0zM727.021 129q-5 8-11 15t-13 14q48 22 89 57 40 34 69 78.5t45 96.5 16 109q0 30-4.5 59t-13.5 56q-15 49-43 91t-65 74.5-82 54.5q-45 23-95 31-15 3-30.5 4.5t-31.5 1.5q-60 0-114-18-54-19-99-51.5t-79-78.5q-33-45-52-99-8 6-16 10.5t-17 7.5q16 44 42 83 25 39 58 71t72 56q40 23 84 38 28 9 58.5 14t62.5 5q83 0 156-33 73-32 128-87.5t86-130.5q32-74 32-159 0-5-0.5-9.5t-0.5-9.5q-3-58-21-112-18-53-48-98.5t-72-81.5q-41-36-90-59v0zM426.021 595q8 4 15.5 6t15.5 2q7 0 13-2t11-6q4-4 6.5-10.5t2.5-14.5q0-6-1-11t-3-11q-2-5-5.5-10.5t-8.5-11.5q-4-6-14-17t-25-27l-68-70v-41h190v49h-119v3l35 34q18 16 30 28.5t19 21.5q7 8 12 17t8 17q4 8 5.5 17t1.5 19q0 11-2.5 20.5t-8.5 18.5q-5 8-12.5 14.5t-17.5 11.5-21 7.5-24 2.5q-10 0-18.5-1t-16.5-3-15-5l-14-6q-6-4-14.5-10t-18.5-15l31-38q8 7 16 12.5t15 8.5v0zM689.021 371h56v58h33v45h-33v174h-53l-119-179v-40h116v-58zM624.021 474l49 76q5 8 9 15.5t8 15.5h1q0-2-0.5-8.5t-0.5-17.5q-1-11-1-19.5v-61.5h-65z" />
<glyph unicode="&#xe971;" glyph-name="uniE971" d="M1002.789 892.5q-3 1-6.5 1.5t-6.5 0.5q-25 0-58-17-33-16-66.5-38.5t-63.5-47.5q-29-24-48-41-21 35-49 63-28 29-62 48.5t-73 29.5q-38 11-79 11-49 0-95-15-45-15-83-43t-67-66q-28-39-43-86h-152v-26q0-79 8-163 9-84 36.5-158.5t80.5-134.5q52-59 141-89v-76h-317v-52h982v52h-317v73q88 27 141 82 52 55 80 128t37 160q8 87 8 178v26h-151q0 1-0.5 1.5t-0.5 1.5q26 10 66 28 39 17 77 39t67 47 35 49q2 8-5.5 20t-15.5 14v0zM490.789 850.5q77 0 141-43.5t93-114.5h-468q29 71 93.5 114.5t140.5 43.5zM870.789 498.5q-10-93-38-159-27-66-73-109t-113-63q-67-21-156-21v0q-102 0-174 28-73 28-120 87.5t-69 153.5q-23 93-25 225h777q-1-24-1.5-46.5t-2.5-43.5h-412v-52h407zM613.789 77.5v-32h-246v32h246z" />
<glyph unicode="&#xe972;" glyph-name="uniE972" d="M0 576h256v-257h-256v257zM358 576h666v-257h-666v257zM0 216h256v-258h-256v258zM358 216h666v-258h-666v258zM0 938l256-1v-257h-256v258zM358 938h666v-258h-666v258z" />
<glyph unicode="&#xe973;" glyph-name="uniE973" d="M71 644q5-6 4-13t-7-11q-4-4-10-4-9 0-14 7-44 56-44 127 0 86 60.5 146.5t145.5 60.5q47 0 89-20t71-56q5-6 4-13t-6.5-11.5-12.5-4-12 6.5q-51 63-133 63-71 0-121-50.5t-50-121.5q0-59 36-106zM818 957q85 0 145.5-60.5t60.5-146.5q0-71-44-128-5-6-14-6-6 0-10 4-6 4-7 11t4 13q36 47 36 106 0 71-50 121.5t-121 50.5q-82 0-133-63-5-6-12-6.5t-12.5 4-6.5 11.5 4 13q29 36 71 56t89 20zM526 359l156-127q6-4 6.5-11t-3.5-13q-6-6-14-6-6 0-11 3l-162 132v1q-1 0-2.5 2t-2 2.5-0.5 3.5q-1 2-1 3v284q0 7 5 12.5t12 5.5 12-5.5 5-12.5v-274zM833 79l110-110q5-5 5-12t-5-12.5-12.5-5.5-12.5 5l-110 110-2 3q-60-55-136.5-86t-160.5-31-160.5 31-136.5 86l-0.5-1t-1.5-2l-110-110q-5-5-12-5t-12 5.5-5 12.5 5 12l110 110 2 1q-56 60-87 137t-31 162q0 89 35 170t93.5 140 140 94 170.5 35 170.5-35 140-94 93.5-140 35-170q0-85-31-161.5t-87-136.5zM509-25q110 0 203 54t147 147 54 202.5-54 203-147 147.5-203 54-203-54-147-147.5-54-203 54-202.5 147-147 203-54z" />
<glyph unicode="&#xe974;" glyph-name="uniE974" d="M485 475h-485v485h485v-485zM54 529h377v377h-377v-377zM1024 475h-485v485h485v-485zM593 529h377v377h-377v-377zM485-64h-485v485h485v-485zM54-10h377v377h-377v-377zM1024-64h-485v485h485v-485zM593-10h377v377h-377v-377z" />
<glyph unicode="&#xe975;" glyph-name="uniE975" d="M768 960h-512q-39 0-67-28t-28-67v-834q0-40 28-67.5t67-27.5h512q39 0 67 27.5t28 67.5v834q0 39-28 67t-67 28v0zM256 908h512q18 0 30.5-12.5t12.5-30.5v-69h-598v69q0 18 12.5 30.5t30.5 12.5v0zM811 761v-636h-598v636h598zM768-13h-512q-18 0-30.5 13t-12.5 31v59h598v-59q0-18-12.5-31t-30.5-13v0zM448 849q0 6 4.5 10.5t10.5 4.5h98q6 0 10.5-4.5t4.5-10.5v-5q0-6-4.5-10t-10.5-4h-98q-6 0-10.5 4t-4.5 10v5zM478 39q0 4 4.5 6.5t10.5 2.5h38q6 0 10.5-2.5t4.5-6.5q0-3-4.5-5.5t-10.5-2.5h-38q-6 0-10.5 2.5t-4.5 5.5v0z" />
<glyph unicode="&#xe976;" glyph-name="uniE976" d="M908 711l-6 5v27q0 36-25.5 61.5t-61.5 25.5h-60q-49 36-86.5 62.5t-62.5 42.5q-20 12-42.5 18.5t-46.5 6.5h-5.5t-5.5-1q-24 0-46-6t-42-18q-25-16-62.5-42.5t-86.5-62.5h-60q-36 0-61.5-25.5t-25.5-61.5v-27l-7-5q-72-61-86-87t-14-52v-516q0-50 31.5-85t75.5-35h780q44 0 75.5 35t31.5 85v516q0 26-14 52t-87 87v0zM66 512v60q0 11 7 25t49 51v-173l-56 37zM356 830q28 20 50.5 35.5t39.5 25.5q0 1 1 1.5t2 0.5q2 1 18.5 7t40.5 7q27 0 46.5-7t21.5-8l2-1q17-10 39.5-25.5t50.5-35.5h-312zM850 441l-244-165q-17-13-43.5-25t-47.5-12q-24 0-43.5 7t-44.5 24l-253 170v305q0 1 0.5 3t0.5 4l1 1q0 1 0.5 1.5t0.5 1.5q4 9 11.5 15t17.5 7h611q11-1 20-8t12-18q0-2 0.5-4t0.5-3v-304zM958 451v-395q0-29-16.5-49t-39.5-20h-780q-23 0-39.5 20t-16.5 49v394l332-223q32-22 58.5-30.5t58.5-8.5q31 0 65.5 14.5t55.5 31.5l322 217zM958 572v-59l-56-38v173q42-37 49-51.5t7-24.5v0zM583 498q-5 5-11.5 10t-14.5 10-18 9.5-22 8.5q-10 3-17.5 6.5t-12.5 6.5q-6 3-10.5 5.5t-7.5 5.5q-2 2-4 4.5t-3 4.5q-1 3-1 6v7q0 6 3 11.5t9 10.5q7 4 16.5 6.5t21.5 2.5q10 0 19-1t17-4q9-3 16.5-6t14.5-7l5-3 18 43-5 2q-8 4-16 7t-16 5q-7 2-15 3.5t-16 2.5l4 49h-50l4-49q-8-1-15.5-3t-14.5-5q-8-3-14.5-7t-11.5-9q-6-5-10-11t-7-13q-2-6-3.5-13t-1.5-14q0-8 1-15.5t3-13.5 6-11.5 8-11.5q5-5 11.5-9.5t13.5-9.5q8-4 17-8t20-9q9-3 17-6.5t15-7.5q6-3 10.5-6t7.5-6q3-2 5-5t3-6 1.5-6.5 0.5-7.5q0-9-3.5-15.5t-11.5-11.5q-7-6-17.5-8.5t-23.5-2.5q-12 0-22 1.5t-18 5.5q-8 3-15.5 8t-14.5 11l-5 4-25-42 4-3q7-6 16.5-11t20.5-8q10-4 21-6t22-3l-3-49h49l-4 50q8 2 15 4t14 5 14 7.5 12 9.5q6 6 10.5 12t7.5 14q3 7 4.5 15.5t1.5 17.5q0 7-1 14t-3 14q-3 6-6.5 12t-8.5 12v0z" />
<glyph unicode="&#xe977;" glyph-name="uniE977" d="M947 644h-151q-32 0-54.5-22.5t-22.5-54.5v-149q0-10 2.5-19.5t6.5-17.5h-30.5t-2.5 1v139h-23q-1 6-1 11v11q0 40-25.5 74.5t-49.5 55.5q24 18 36 45t12 62q0 59-42.5 101t-101.5 42q-32 0-62.5-13t-53.5-36q-19-20-29-44.5t-9-50.5v-20h31q4-43 26-72.5t57-39.5v-50q-2-8-16.5-15t-33.5-7h-91q-6 10-20.5 20t-44.5 10h-50v-30h-2q-10 0-18-7.5t-8-18.5v-62q0-9 5-15.5t13-9.5q-1-4-1.5-8.5t-1.5-9.5q-2-19-3.5-44.5t-1.5-52.5q0-45-10-68.5t-15-24.5h-7q-60 0-103.5-39.5t-48.5-98.5l-2-22h24q4-51 41.5-86.5t89.5-35.5q50 0 86.5 31.5t43.5 78.5h305q7-47 43.5-78.5t85.5-31.5 86 31.5 44 78.5h23v176h2q16 0 27 10.5t11 26.5v2q0 16-11 26.5t-27 10.5h-2v7h75q32 0 54.5 22.5t22.5 54.5v149q0 32-22.5 54.5t-54.5 22.5v0zM284 180q-13 23-33.5 39.5t-45.5 25.5q10 18 15.5 44.5t5.5 57.5q0 46 3 74.5t6 39.5h10v104h9q16 0 23-4t8-9q0-12 1-24.5t3-22.5q-6-4-9.5-10.5t-3.5-13.5v-263q0-10 2-19.5t6-18.5v0zM390 186v9h82v-8q-11 0-29-0.5t-34-0.5h-19zM317 474q1 0 2 0.5t3 0.5h48q16 0 26-1.5t18-2.5q4 0 8-0.5t9-0.5h11t11 1q1-7 2-15t3-15q-22-10-36-32t-14-48v-126h-18q-17 0-28.5-10.5t-11.5-24.5v-14h-18q-4 0-9.5 9t-5.5 23v256zM639 385l-4-1.5t-18-1.5q-9 0-20 1t-21 2q-11 1-19.5 2t-16.5 1q-43 0-55-11.5t-14-53.5q-1-13-0.5-30.5t1.5-36.5v-21h-24v126q0 19 12.5 32.5t29.5 13.5h156q0-10-2.5-14.5t-4.5-7.5v0zM499 448q-2 4-3.5 12t-2.5 20q31 11 49 30.5t18 44.5q0 22-16.5 39t-43.5 23v26q16 1 30 3.5t27 6.5q14-11 43.5-43t29.5-67q0-21 3-41t6-38l2-8t1-8h-143zM519 555q0-16-25-30.5t-62-14.5q-3 0-6 0.5t-6 0.5q-6 1-13 2t-17 1q-1 2-1 4v5h8q35 0 62 15t37 39q10-3 16.5-9t6.5-13v0zM312 150v-27h-7q-2 13-6 25t-10 23q5-7 11-12t12-9v0zM353 142v3l2 0.5t5 0.5h77t21 1l78-1v178q0 7 1.5 11.5t3.5 5.5h290v-6h-126q-16 0-26.5-11t-10.5-27v-2q0-16 10.5-26.5t26.5-10.5h126v-52q-21 24-51 37.5t-64 13.5q-58 0-102-38.5t-52-95.5h-209v19zM388 799q3 16 10.5 28t14.5 19q17 18 40 27.5t47 9.5q43 0 73.5-30.5t30.5-72.5q0-44-23.5-67.5t-70.5-28.5v115h-122zM470 759v-73q-22 6-35.5 25t-16.5 48h52zM327 527q4-1 9.5-1.5t10.5-1.5q1-2 1.5-4t0.5-5h-21q0 1-0.5 4t-0.5 8v0zM603 123q7 40 39 67t74 27q43 0 75-27t39-67h-20v-20q0-38-26.5-64.5t-64.5-26.5q-32 0-56.5 20t-31.5 50h103v41h-131zM244 82q-7-30-31.5-50t-56.5-20q-38 0-64.5 26.5t-26.5 64.5v4q0 2 0.5 3t0.5 3l2 21h-22q11 36 40 57.5t68 21.5q41 0 71.5-25.5t38.5-64.5h-123v-41h103zM947 381h-151q-15 0-26 10.5t-11 26.5v33h225v-33q0-16-11-26.5t-26-10.5v0zM984 523v-32h-225v32h225zM796 604h151q15 0 26-11t11-26v-4h-225v4q0 15 11 26t26 11v0z" />
<glyph unicode="&#xe978;" glyph-name="uniE978" d="M512 960q-106 0-199-41-93-40-162.5-109.5t-110.5-162.5q-40-93-40-199t40-199q41-94 110.5-163.5t162.5-109.5 199-40 199 40 162.5 109.5 110.5 163.5q40 93 40 199t-40 199q-41 93-110.5 162.5t-162.5 109.5q-93 41-199 41v0zM998 448q0-49-9-95.5t-27-89.5q-7 69-31 127-23 59-56.5 107t-73.5 85q-41 37-81 62 42 22 95.5 28.5t128.5-1.5q26-50 40-106.5t14-116.5v0zM929 698q-64 6-112.5 0.5t-87.5-21.5q25 53 26 107t-5 88q55-31 100.5-75.5t78.5-98.5v0zM721 887q6-29 8.5-93.5t-33.5-124.5q-17 28-47 66-31 37-72 73.5t-93 65.5-113 39q34 10 69 15.5t72 5.5q56 0 109-12t100-35v0zM316 893q65-1 122-26 56-25 101.5-60.5t78.5-75.5q33-39 52-69-113 17-201 8-89-8-164-40.5t-142-88.5q-67-55-136-132-1 10-1 19.5v19.5q0 74 21 142 21 69 59.5 126.5t92.5 102.5q53 45 117 74v0zM31 375q72 82 139 140 68 58 143 91t165 40q89 7 206-13 21-93 15-181-5-88-38.5-170.5t-93.5-160.5q-61-77-149-151-75 15-141 52-65 36-116 89.5t-85 120.5-45 143v0zM512-39q-15 0-30.5 1t-30.5 3q84 73 143 149 58 77 90.5 158t39.5 168q7 86-11 178 24-16 63-48 38-33 74-83t62-117q27-68 27-155-31-56-75-103-45-47-100-80.5t-119-51.5q-64-19-133-19v0z" />
<glyph unicode="&#xe979;" glyph-name="uniE979" d="M642 666h-251v-36h251v36zM642 527h-251v-35h251v35zM642 386h-251v-35h251v35zM280 636l-39 33-15-18 57-48 75 91-18 14-60-72zM280 497l-39 33-15-18 57-48 75 91-18 15-60-73zM280 366l-39 34-15-18 57-49 75 91-18 15-60-73zM280 224l-39 33-15-18 57-48 75 91-18 15-60-73zM779 321v459q0 34-24 58t-58 24h-86v33h-93q-5 27-27 46t-50 19q-29 0-50.5-19t-26.5-46h-93v-33h-86q-34 0-58.5-24t-24.5-58v-671q0-34 24.5-58t58.5-24h372q26-41 70-66t97-25q41 0 77 15 36 16 62.5 42.5t42.5 62.5 16 76q0 68-40.5 119.5t-102.5 69.5v0zM300 866h92v14q0 21 14.5 35.5t34.5 14.5 34.5-14.5 14.5-35.5v-14h91v-75h-281v75zM391 252v-35h154q-9-19-14-40.5t-5-44.5q0-15 2.5-30t6.5-28h-350q-15 0-25.5 10t-10.5 25v671q0 15 10.5 25t25.5 10h86v-53h339v53h87q14 0 24.5-10t10.5-25v-451h-8q-48 0-89-21t-68-56h-176zM724-23q-65 0-110.5 45.5t-45.5 109.5q0 65 45.5 110.5t110.5 45.5q64 0 110-45.5t46-110.5q0-64-46-109.5t-110-45.5zM703 102l-53 52-20-21 75-73 10 12 98 118-23 18-87-106z" />
<glyph unicode="&#xe97a;" glyph-name="uniE97A" d="M972.393 28q-14-17-47-42.5t-57-37.5q-22-12-100-12-38 0-79 5t-99 21-113 42.5-121 74.5-124 111q-66 72-112 151.5t-66 147.5-29 130.5-4 110 10 76 11 37.5q14 22 42 53t46 45q24 19 48 19 30 0 56-38l148-228q14-23 9-49.5t-25-41.5l-8-4q-56-35-82-51l-8-5v-9q-12-74 128-230 88-99 164-99 16 0 28 4l4 2 62 78q20 24 52 24 22 0 40-14l216-166q32-24 34-50.5t-24-54.5zM960.393 76l2 14-8 4q-6 6-12 11l-216 167q-10 6-20 6-16 0-24-11l-62-79q-6-6-22-12t-38-6q-92 0-190 111-88 98-120 165.5t-10 115.5l2 5 4 2q12 9 98 62l2 2q10 6 12 18.5t-6 23.5l-148 228q-8 14-18 19l-6 4-8-2q-10-2-20-11-16-12-41-39t-37-47l-4-5q-2-13-6-29.5t-7-55-1-78 14-95.5 33-109.5 61-117.5 94-123q56-61 118-106.5t115-71 108-41 94-20 75-4.5q52 0 82 8l6 2q20 11 49 33.5t43 37.5q12 13 12 24zM498.393 943q102 0 196-40.5t162-108.5 108-162 40-197q0-7-5-12.5t-13-5.5-13 5.5-5 12.5q0 96-38 183t-101 150-150 100.5-181 37.5q-8 0-14 5t-6 13 6 13.5 14 5.5zM526.393 734q116 0 197-81.5t81-196.5q0-8-5-13.5t-13-5.5-13 5.5-5 13.5q0 100-71 170.5t-171 70.5q-8 0-13 5.5t-5 13 5 13 13 5.5z" />
<glyph unicode="&#xe97b;" glyph-name="uniE97B" d="M722 480v40l-122 184h-443l-120-185v-368h685v329zM403 655h171l83-126h-254v126zM184 655h170v-126h-252l82 126zM673 200h-588v280h588v-280zM500 920q-23 0-45.5-2t-44.5-7l-16 49-144-126 191-20-16 50q19 3 37.5 5t37.5 2q91 0 171-35 79-35 139-95t94-141q35-81 35-172 0-92-35-172-34-81-94-141t-139-95q-80-35-171-35-75 0-144.5 24.5t-128.5 71.5l-30-39q32-26 68-46t74-33.5 79-19.5q40-7 82-7 101 0 189 38 89 39 155.5 106t104.5 156q38 90 38 192t-38 191q-38 90-104.5 156.5t-155.5 105.5q-88 39-189 39v0z" />
<glyph unicode="&#xe97c;" glyph-name="uniE97C" d="M992 529h-62v26q0 48-32 88t-88 69.5-133 45.5q-76 17-166 17t-166-17q-77-16-133-45.5t-88-69.5-32-88v-26h-60q-13 0-22.5-12t-9.5-25q0-14 9.5-26t22.5-12h60v-321q0-56 43.5-93.5t99.5-37.5h554q56 0 98.5 37.5t42.5 93.5v321h62q13 0 22.5 12t9.5 26q0 13-9.5 25t-22.5 12v0zM154 555q0 32 29 61 29 28 77.5 49t113.5 34q65 12 137 12t137-12q65-13 113.5-34t77.5-49q29-29 29-61v-26h-714v26zM789 64h-554q-28 0-48.5 17.5t-23.5 45.5h698q-3-28-23.5-45.5t-48.5-17.5v0zM868 165h-714v289h714v-289zM427 831h170q13 0 22 9t9 22q0 14-9 23t-22 9h-170q-13 0-22-9t-9-23q0-13 9-22t22-9z" />
<glyph unicode="&#xe97d;" glyph-name="uniE97D" d="M785 909h-546l-239-258v-49l513-615 511 615v49l-239 258zM762 856l189-204h-258l-134 204h203zM629 652h-234l117 179zM262 856h203l-134-204h-258l189 204zM70 600h256l128-461-384 461zM512 127l-131 473h263l-132-473zM698 600h256l-383-461z" />
<glyph unicode="&#xe97e;" glyph-name="uniE97E" d="M801 193.037q-5 4-11 5.5t-12 1.5q31 30 56 66t42.5 76.5 27.5 84.5q9 45 9 91 0 92-34 172-35 80-94.5 140t-139.5 95q-79 35-170 35t-171-35q-79-35-138.5-95t-94.5-140q-34-80-34-172 0-91 34-171 35-80 94.5-140t138.5-95q80-35 171-35 76 0 145 25t125 70q-1-7 0-13.5t4-12.5l20-33q19-32 48.5-71.5t63.5-72.5 63-33q15-1 29 11.5t14 27.5q0 28-29 66t-64 71.5-64 57.5l-29 23zM475 151.037q-76 0-142 29-67 29-116.5 79t-78.5 116q-28 67-28 143t28 143q29 67 78.5 117t116.5 79q66 29 142 29 75 0 142-29t116.5-79 78.5-117q28-66 28-143 0-76-28-143-29-66-78.5-116t-116.5-79q-66-29-142-29v0z" />
<glyph unicode="&#xe97f;" glyph-name="uniE97F" d="M438 138q-86 0-162 33-76 32-132.5 88t-88.5 130q-33 75-33 160t33 160q32 74 88.5 130t132.5 88q76 33 162 33t161-33q76-32 132.5-88t89.5-130q32-75 32-160t-32-160q-33-74-89.5-130t-132.5-88q-75-33-161-33v0zM438 900q-74 0-139-28-64-27-112.5-75t-76.5-112q-28-63-28-136t28-136q28-64 76.5-112t112.5-75q65-28 139-28 73 0 138 28 65 27 113 75t76 112q28 63 28 136t-28 136q-28 64-76 112t-113 75q-65 28-138 28v0zM989 9l-234 235q-6 6-14 9.5t-17 3.5-17-3.5-14-8.5q-13-13-13-31t13-31l234-235q7-6 15-9t16-3q9 0 17 3t14 9q13 13 13 31t-13 30v0zM628 575h-380v-52h380v52z" />
<glyph unicode="&#xe980;" glyph-name="uniE980" d="M438 138q-86 0-162 33-76 32-132.5 88t-88.5 130q-33 75-33 160t33 160q32 74 88.5 130t132.5 88q76 33 162 33t161-33q76-32 132.5-88t89.5-130q32-75 32-160t-32-160q-33-74-89.5-130t-132.5-88q-75-33-161-33v0zM438 900q-74 0-139-28-64-27-112.5-75t-76.5-112q-28-63-28-136t28-136q28-64 76.5-112t112.5-75q65-28 139-28 73 0 138 28 65 27 113 75t76 112q28 63 28 136t-28 136q-28 64-76 112t-113 75q-65 28-138 28v0zM989 9l-234 235q-6 6-14 9.5t-17 3.5-17-3.5-14-8.5q-13-13-13-31t13-31l234-235q7-6 15-9t16-3q9 0 17 3t14 9q13 13 13 31t-13 30v0zM628 575h-164v162h-52v-162h-164v-52h164v-162h52v162h164v52z" />
<glyph unicode="&#xe981;" glyph-name="uniE981" d="M454.554 733.5h187v-56h-187v56zM123.554 635.5h291v-56h-291v56zM-0.446 509.5h210v-56h-210v56zM1002.554 504.5q-18 15-50 13t-67-33q-4-3-11-11t-20-23v421h-605v-166h49v113h509v-423q-12-14-33-37t-29-30h-8q0 4 0.5 8.5t-0.5 9.5q-5 31-23 46.5t-59 23.5q-21 4-68 5-48 1-102-1t-105-7-81-13l0.5 3t-0.5 3v102h-50v-128q-33-19-70-44-37-26-69-50t-56-43q-23-19-29-24l7-8-2-2 10-8 16-18q1 1 2 1.5t2 1.5v0q29 24 67 54 38 29 75.5 55t70.5 44q33 19 51 21 29 4 77 7 47 3 95.5 5t90.5 2q41-1 59-4 30-6 36-13t8-18v-3t-1-2q-3-4-15.5-7.5t-35.5-3.5h-137l-2-47q25-2 64-4 38-3 77.5-3.5t71.5 1.5 45 8q16 9 48.5 44.5t74.5 84.5q11 14 22.5 27t14.5 15q19 17 34 20t21-1q4-4 3-15t-11-26q-16-25-50-64t-70-76-66-65q-30-29-38-33-12-4-65-2t-100 4q-106 6-146 5.5t-54-9.5q-11-8-39.5-30.5t-57.5-46.5q-18-14-42.5-33t-27.5-21l38-32q16 13 15.5 13t46.5 37q26 21 54 43t39 30q14 4 70 2t102-5q91-4 132.5-4.5t55.5 7.5q13 7 47 38t72 71 73 80q35 41 52 66 23 36 18 62.5t-21 39.5v0z" />
<glyph unicode="&#xe982;" glyph-name="uniE982" d="M891 865h-750l-140-274-1-11v-21l1-4q4-30 19-53.5t36-31.5v-405q0-14 10-24t24-10h836q14 0 24 10t10 24v403q25 7 41.5 29.5t20.5 56.5h2v37l-133 274zM352 370v-292h-142v292h142zM129 554q-6-19-19.5-30.5t-29.5-11.5q-8 0-17 11t-13 31h79zM162 417v-339h-58v390q14 4 27 12.5t23 21.5q12-18 28.5-27.5t35.5-9.5q23 0 43.5 9.5t35.5 27.5q12-18 28.5-27.5t34.5-9.5q23 0 44 10.5t36 29.5q13-18 31-28.5t37-10.5q23 0 42.5 10.5t33.5 29.5q14-19 32.5-29.5t36.5-10.5q21 0 38 9t29 27q14-18 32.5-27.5t37.5-9.5q23 0 42.5 10t32.5 28q9-12 21.5-20.5t25.5-13.5v-391h-512v339h-238zM219 817l-80-216h-79l110 216h49zM881 601l-74 216h54l105-216h-85zM612 554h79q-3-15-11-27.5t-27-12.5q-10 0-22.5 11t-18.5 29v0zM790 512q-13 0-26 12.5t-19 29.5h91q-3-13-13-27.5t-33-14.5zM742 601l-45 216h59l74-216h-88zM605 601l-13 216h57l45-216h-89zM360 512q-11 0-20 12t-13 30h86q-7-19-21-30.5t-32-11.5v0zM218 512q-11 0-21 12t-14 30h90q-6-19-21-30.5t-34-11.5v0zM331 601l49 216h59l-19-216h-89zM190 601l80 216h61l-49-216h-92zM508 514q-10 0-22 10.5t-18 29.5h86q-5-19-17-29.5t-29-10.5zM467 601l19 216h59l12-216h-90zM974 554q-4-21-13.5-31.5t-24.5-10.5q-11 0-25.5 12t-20.5 30h84zM854 417h-420v-229h420v229zM481 236v134h326v-134h-326z" />
<glyph unicode="&#xe983;" glyph-name="uniE983" d="M1024 662q0 10-6.5 16.5t-16.5 6.5h-42v34q0 47-33 80t-80 33h-664q-47 0-79.5-33t-32.5-80v-34h-47q-10 0-16.5-6.5t-6.5-16.5v-271q0-4 1-7t3-6q-2-2-3-5.5t-1-6.5v-166q0-10 6.5-16.5t16.5-6.5h47v-113h122v113h670v-113h122v113h17q10 0 16.5 6.5t6.5 16.5v166q0 3-1 6.5t-3 5.5q2 3 3 6t1 7v271zM146 110h-30v55h30v-55zM938 110h-30v55h30v-55zM978 414h-85v225h85v-225zM116 719q0 28 19 47t47 19h664q28 0 47.5-19t19.5-47v-34h-43q-9 0-16-6.5t-7-16.5v-273l-670 0.5v272.5q0 10-7 16.5t-16 6.5h-38v34zM46 639h85v-225h-85v225zM46 343h932v-120h-932v120z" />
<glyph unicode="&#xe984;" glyph-name="uniE984" d="M827 851l-17 13q-66 47-142 71.5t-156 24.5-156-24.5-142-72.5l-18-13q-46-36-83-82-36-45-61.5-96.5t-38.5-108.5q-13-56-13-115 0-31 3.5-61.5t11.5-60.5l8-29q23-75 68-140t108-114l18-14q65-46 140-69.5t155-23.5 155 24 141 70l17 13q64 49 108.5 114t68.5 142l8 28q7 30 10.5 60t3.5 61q0 59-13 115-13 57-38.5 108.5t-61.5 96.5q-37 46-84 83v0zM255 503q-53-21-100.5-51t-88.5-68q-3 16-4 32t-1 32q0 72 22 139.5t65 125.5q39-43 66-96.5t41-113.5v0zM766 507q14 60 41.5 113t67.5 95q43-58 65.5-126t22.5-141q0-15-1-30t-3-30q-42 38-90.5 67.5t-102.5 51.5v0zM512-3q-70 0-136 21t-123 61l-16 12q22 32 39 68t28.5 74.5 17.5 79.5q6 40 6 81 0 17-1 34.5t-3 34.5q45 15 92 22t94 7.5 94-6.5q47-6 93-20-3-18-4-36t-1-36q0-41 6-82t17.5-79.5 28.5-74.5q18-37 40-70l-12-8q-57-41-123.5-62t-136.5-21v0zM267 394q0-71-19.5-138t-56.5-124q-38 38-66 84.5t-43 97.5q37 39 83.5 71.5t99.5 55.5q1-12 1.5-24t0.5-23v0zM512 898q71 0 137.5-21.5t124.5-62.5l16-12q12-9 23-19t21-21q-46-48-78-108t-48-127q-48 14-98 20-49 7-99.5 7t-100.5-8q-49-7-97-22-16 68-48 128t-78 108q11 11 22.5 21.5t24.5 20.5l16 12q58 41 124.5 62.5t137.5 21.5v0zM756 445q53-23 100.5-55.5t87.5-72.5l-1-1q-16-53-44.5-100.5t-68.5-86.5q-37 57-57 125.5t-20 139.5q0 12 0.5 25t2.5 26v0z" />
<glyph unicode="&#xe985;" glyph-name="uniE985" d="M780-42.76q-10 0-19.5 3t-18.5 8l-230 136-231-136q-8-5-18-8t-21-3h-3q-11 1-21.5 4.5t-19.5 10.5-16 15.5-11 19.5q-4 10-4.5 21t1.5 22l59 262-201 176q-9 8-14.5 17.5t-8.5 20.5q-3 10-3 21.5t4 22.5q3 10 9.5 19t14.5 16q9 7 19.5 11.5t21.5 5.5l267 25 106 245q5 11 12 19.5t16 14.5l2 1q19 12 41.5 11.5t40.5-12.5q10-7 17-15.5t11-18.5l106-245 267-26q11-1 21.5-5t18.5-11q9-7 15.5-16t9.5-20q4-11 4-22t-2-22q-4-11-9.5-20.5t-14.5-16.5l-201-177 59-261q2-11 1.5-22t-5.5-22q-3-10-10-19t-17-16q-9-6-19.5-10t-21.5-4h-4zM512 173.24q7 0 13.5-2t13.5-5l237-141q2-1 3-1h2q2 0 3 0.5t2 1.5q2 1 3 2t1 2q1 1 1 2.5t-1 3.5l-60 269q-1 6-1 13t2 14q3 7 7 13t9 11l207 182q1 1 2 2.5t1 2.5v5l-1.5 3t-1.5 2-2 1.5-3 0.5h-1l-274 26q-7 1-14 3.5t-12 6.5q-6 4-10.5 9.5t-7.5 12.5l-109 253q-1 2-2 3l-2 2t-4 1-5-1l-2-1q-1-1-1.5-2t-1.5-2l-109-253q-3-7-7.5-12.5t-10.5-9.5-12.5-6.5-14.5-3.5l-274-26q-1 0-2.5-0.5t-2.5-1.5q-1 0-1.5-1.5t-1.5-2.5v-5q0-2 1-3.5t2-2.5l207-182q6-5 10-11t6-13q1-6 1.5-13t-0.5-13l-2-6-59-264v-5q1-2 2-3l2-2t2.5-1.5 2.5-0.5q2 0 3 0.5t2 0.5l238 141q7 4 13.5 5.5t13.5 1.5v0z" />
<glyph unicode="&#xe986;" glyph-name="uniE986" d="M780-42.76q-10 0-19.5 3t-18.5 8l-230 136-231-136q-8-5-18-8t-21-3h-3q-11 1-21.5 4.5t-19.5 10.5-16 15.5-11 19.5q-4 10-4.5 21t1.5 22l59 262-201 176q-9 8-14.5 17.5t-8.5 20.5q-3 10-3 21.5t4 22.5q3 10 9.5 19t14.5 16q9 7 19.5 11.5t21.5 5.5l267 25 106 245q5 11 12 19.5t16 14.5l2 1q19 12 41.5 11.5t40.5-12.5q10-7 17-15.5t11-18.5l106-245 267-26q11-1 21.5-5t18.5-11q9-7 15.5-16t9.5-20q4-11 4-22t-2-22q-4-11-9.5-20.5t-14.5-16.5l-201-177 59-261q2-11 1.5-22t-5.5-22q-3-10-10-19t-17-16q-9-6-19.5-10t-21.5-4h-4z" />
<glyph unicode="&#xe987;" glyph-name="uniE987" d="M1024 697.5q0 32-23 55t-56 23h-866q-33 0-56-23t-23-55q0-31 22-54t53-25h3v-314q0-34 23-60t57-31h4v-93h130v92h452v-92h130v92h4q36 2 62 29t26 63v317l3 1q24 7 39.5 28t15.5 47v0zM258 154.5h-63v58h63v-58zM840 154.5h-63v59h63v-59zM874 260.5h-703q-19 0-31.5 13t-12.5 31v314h791v-314q0-18-13-31t-31-13v0zM945 666.5h-866q-13 0-22 9t-9 22q0 12 9 21t22 9h866q13 0 22-9t9-21q0-13-9-22t-22-9v0zM647 585.5q0 7-4.5 11.5t-11.5 4.5h-464q-6 0-10.5-4.5t-4.5-11.5v-284q0-7 4.5-11.5t10.5-4.5h464q7 0 11.5 5t4.5 11v284zM616 317.5h-433v253h433v-253zM884 585.5q0 7-5 11.5t-11 4.5h-177q-7 0-11.5-4.5t-4.5-11.5v-284q0-7 4.5-11.5t11.5-4.5h177q6 0 11 5t5 11v284zM852 317.5h-146v253h146v-253zM303 535.5h184v-31h-184v31zM740 535.5h88v-31h-88v31z" />
<glyph unicode="&#xe988;" glyph-name="uniE988" d="M574 87.5q15 0 26 11.5t11 28.5q0 16-11 27.5t-26 11.5q-16 0-27-11.5t-11-27.5q0-17 11-28.5t27-11.5zM574 135.5q3 0 5.5-2.5t2.5-5.5q0-4-2.5-6.5t-5.5-2.5q-4 0-6 2.5t-2 6.5q0 3 2 5.5t6 2.5zM412 87.5q16 0 27 11.5t11 28.5q0 16-11 27.5t-27 11.5q-15 0-26.5-11.5t-11.5-27.5q0-17 11.5-28.5t26.5-11.5zM412 135.5q3 0 5.5-2.5t2.5-5.5q0-4-2.5-6.5t-5.5-2.5-5.5 2.5-2.5 6.5q0 3 2.5 5.5t5.5 2.5zM998 405.5q-12 13-28 20t-34 7h-254v76h-84v47h149q31 0 52.5 22.5t21.5 53.5v252q0 32-21.5 54t-52.5 22h-489q-30 0-51.5-22t-21.5-54v-251q0-32 21.5-54.5t51.5-22.5h149v-47h-84v-76h-235q-36 0-62-27t-26-65v-254q0-34 21.5-60t54.5-31v-59h51v58h765v-58h51v59q34 3 57.5 29t23.5 62v254q0 19-6.5 35.5t-19.5 29.5v0zM972 209.5v-123q0-15-10.5-26.5t-25.5-11.5h-428v161h464zM459 513.5v40h88v-40h-88zM631 463.5v-30h-256v30h256zM237 883.5q0 9 6 16t15 7h489q9 0 15.5-7t6.5-16v-251q0-10-6.5-16.5t-15.5-6.5h-489q-9 0-15 6.5t-6 16.5v251zM52 340.5q0 16 10.5 27.5t25.5 11.5h848q15 0 25.5-11.5t10.5-27.5v-100h-920v100zM478 209.5v-161h-390q-15 0-25.5 11.5t-10.5 26.5v123h426z" />
</font>
</defs>
</svg>
