<svg width="607" height="468" xmlns="http://www.w3.org/2000/svg" xmlns:xlink="http://www.w3.org/1999/xlink" overflow="hidden"><defs><clipPath id="clip0"><rect x="517" y="23" width="607" height="468"/></clipPath></defs><g clip-path="url(#clip0)" transform="translate(-517 -23)"><path d="M627.512 195.741 629.147 215.719C630.125 225.059 631.299 234.088 632.692 242.83L634.337 251.424 625.978 262.004C608.651 285.382 598.936 307.878 599.974 326.968 601.651 357.795 612.241 387.467 686.311 384.005 499.614 406.271 528.725 300.149 617.116 206.107ZM954.436 56.0405C1050.03 57.5793 1109.61 103.075 1019.56 215.756 1038.92 173.399 1043.97 125.728 1024.25 113.925 995.933 94.7897 959.435 89.349 919.751 93.5925L911.955 94.6809 910.518 94.1036C894.755 87.1623 879.217 79.0974 863.717 69.8714L858.804 66.7613 886.616 61.2718C910.17 57.5273 933.192 55.6985 954.436 56.0405Z" fill="#9D9D9D" fill-rule="evenodd"/><path d="M817.499 38.5001C879.899 84.8789 939.899 112.067 1009.5 122.462 1009.77 308.777 978.032 389.54 818.299 477.5 658.033 389.54 625.767 305.578 625.5 122.462 694.3 115.265 759.099 82.48 817.499 38.5001Z" stroke="#000000" stroke-width="23" stroke-miterlimit="8" fill="none" fill-rule="evenodd"/><path d="M787 206C787 188.879 800.879 175 818 175 835.121 175 849 188.879 849 206 849 223.121 835.121 237 818 237 800.879 237 787 223.121 787 206Z" fill-rule="evenodd"/><path d="M823 175.789C826.924 160.632 839.678 148 860 148 843.042 155.719 835.333 165.123 831.83 180L823 175.789Z" fill-rule="evenodd"/><path d="M0 27.7895C3.92421 12.6316 16.6781 0 37 0 20.0417 7.71927 12.3333 17.1228 8.82955 32L0 27.7895Z" fill-rule="evenodd" transform="matrix(-1 0 0 1 812 148)"/><path d="M736 220.8C793.867 195.082 840.422 201.982 898.289 220.8 904.557 287.585 868.719 337.224 817.797 367 761.831 335.343 738.546 291.976 736 220.8Z" fill-rule="evenodd"/><path d="M523.748 337.82 525.644 352.201C526.789 357.042 528.108 359.217 530.573 366.234 564.93 438.35 714.923 425.28 868.106 352.302 1021.29 279.325 1119.65 174.075 1085.29 101.958 1083.15 97.4508 1080.54 93.228 1077.5 89.2894L1067.81 79.0529 1068.34 79.222C1090.94 88.1208 1107.61 101.8 1116.42 120.298 1151.67 194.29 1052.35 322.911 889.022 400.724 725.689 478.537 560.194 476.077 524.944 402.085 516.131 383.588 516.011 362.023 523.341 338.865L523.748 337.82Z" fill="#62C101" fill-rule="evenodd"/><path d="M785 251.99 819.439 267.455 931 194 817.983 295 785 251.99Z" fill="#62C101" fill-rule="evenodd"/></g></svg>